ISO-10303-21;
HEADER;
FILE_DESCRIPTION (( 'STEP AP214' ),
    '1' );
FILE_NAME ('dichtung.STEP',
    '2026-03-06T22:15:10',
    ( '' ),
    ( '' ),
    'SwSTEP 2.0',
    'SolidWorks 2023',
    '' );
FILE_SCHEMA (( 'AUTOMOTIVE_DESIGN' ));
ENDSEC;

DATA;
#1 = CIRCLE ( 'NONE', #344, 42.00000000000000000 ) ;
#2 = AXIS2_PLACEMENT_3D ( 'NONE', #566, #129, #122 ) ;
#3 = ORIENTED_EDGE ( 'NONE', *, *, #597, .F. ) ;
#4 = SURFACE_SIDE_STYLE ('',( #601 ) ) ;
#5 = CARTESIAN_POINT ( 'NONE',  ( -42.00000000000000000, 0.000000000000000000, 0.000000000000000000 ) ) ;
#6 = ADVANCED_FACE ( 'NONE', ( #342, #540, #98, #297, #443, #20, #471, #67 ), #176, .F. ) ;
#7 = EDGE_LOOP ( 'NONE', ( #326, #105, #320, #158 ) ) ;
#8 = CARTESIAN_POINT ( 'NONE',  ( 0.000000000000000000, 0.000000000000000000, 1.000000000000000000 ) ) ;
#9 = APPLICATION_PROTOCOL_DEFINITION ( 'draft international standard', 'automotive_design', 1998, #38 ) ;
#10 = EDGE_CURVE ( 'NONE', #19, #495, #523, .T. ) ;
#11 = DIRECTION ( 'NONE',  ( -0.000000000000000000, -0.000000000000000000, -1.000000000000000000 ) ) ;
#12 = AXIS2_PLACEMENT_3D ( 'NONE', #140, #499, #155 ) ;
#13 = ORIENTED_EDGE ( 'NONE', *, *, #635, .T. ) ;
#14 = LINE ( 'NONE', #619, #227 ) ;
#15 = DIRECTION ( 'NONE',  ( 0.000000000000000000, 0.000000000000000000, -1.000000000000000000 ) ) ;
#16 = AXIS2_PLACEMENT_3D ( 'NONE', #88, #429, #181 ) ;
#17 = DIRECTION ( 'NONE',  ( 0.000000000000000000, 0.000000000000000000, 1.000000000000000000 ) ) ;
#18 = DIRECTION ( 'NONE',  ( -1.000000000000000000, 0.000000000000000000, 0.000000000000000000 ) ) ;
#19 = VERTEX_POINT ( 'NONE', #170 ) ;
#20 = FACE_BOUND ( 'NONE', #431, .T. ) ;
#21 = DIRECTION ( 'NONE',  ( 0.000000000000000000, 0.000000000000000000, -1.000000000000000000 ) ) ;
#22 = ORIENTED_EDGE ( 'NONE', *, *, #343, .T. ) ;
#23 = EDGE_CURVE ( 'NONE', #574, #564, #555, .T. ) ;
#24 = DIRECTION ( 'NONE',  ( -0.000000000000000000, -0.000000000000000000, -1.000000000000000000 ) ) ;
#25 = CARTESIAN_POINT ( 'NONE',  ( 42.00000000000000000, 5.143516556418882533E-15, 0.000000000000000000 ) ) ;
#26 = VERTEX_POINT ( 'NONE', #219 ) ;
#27 = AXIS2_PLACEMENT_3D ( 'NONE', #76, #421, #281 ) ;
#28 = AXIS2_PLACEMENT_3D ( 'NONE', #177, #21, #524 ) ;
#29 = AXIS2_PLACEMENT_3D ( 'NONE', #422, #217, #425 ) ;
#30 = DIRECTION ( 'NONE',  ( -0.000000000000000000, -0.000000000000000000, -1.000000000000000000 ) ) ;
#31 = FACE_OUTER_BOUND ( 'NONE', #508, .T. ) ;
#32 = ORIENTED_EDGE ( 'NONE', *, *, #280, .F. ) ;
#33 = DIRECTION ( 'NONE',  ( 0.000000000000000000, 0.000000000000000000, 1.000000000000000000 ) ) ;
#34 = CARTESIAN_POINT ( 'NONE',  ( 42.00000000000000000, 5.143516556418882533E-15, 1.000000000000000888 ) ) ;
#35 = EDGE_CURVE ( 'NONE', #150, #490, #355, .T. ) ;
#36 = ORIENTED_EDGE ( 'NONE', *, *, #417, .T. ) ;
#37 = EDGE_CURVE ( 'NONE', #358, #304, #639, .T. ) ;
#38 = APPLICATION_CONTEXT ( 'automotive_design' ) ;
#39 = ORIENTED_EDGE ( 'NONE', *, *, #386, .F. ) ;
#40 = UNCERTAINTY_MEASURE_WITH_UNIT (LENGTH_MEASURE( 1.000000000000000082E-05 ), #633, 'distance_accuracy_value', 'NONE');
#41 = CIRCLE ( 'NONE', #582, 2.000000000000001776 ) ;
#42 = DIRECTION ( 'NONE',  ( 0.000000000000000000, 0.000000000000000000, 1.000000000000000000 ) ) ;
#43 = ORIENTED_EDGE ( 'NONE', *, *, #247, .T. ) ;
#44 = ADVANCED_FACE ( 'NONE', ( #571 ), #213, .F. ) ;
#45 = CARTESIAN_POINT ( 'NONE',  ( 0.000000000000000000, 47.50000000000000711, 1.000000000000000888 ) ) ;
#46 = ORIENTED_EDGE ( 'NONE', *, *, #233, .T. ) ;
#47 = EDGE_CURVE ( 'NONE', #245, #294, #116, .T. ) ;
#48 = EDGE_LOOP ( 'NONE', ( #454, #175, #609, #78 ) ) ;
#49 = VECTOR ( 'NONE', #171, 1000.000000000000000 ) ;
#50 = EDGE_CURVE ( 'NONE', #396, #490, #364, .T. ) ;
#51 = VECTOR ( 'NONE', #30, 1000.000000000000000 ) ;
#52 = ORIENTED_EDGE ( 'NONE', *, *, #379, .T. ) ;
#53 = CYLINDRICAL_SURFACE ( 'NONE', #394, 2.000000000000001776 ) ;
#54 = ORIENTED_EDGE ( 'NONE', *, *, #85, .T. ) ;
#55 = DIRECTION ( 'NONE',  ( 0.000000000000000000, 0.000000000000000000, -1.000000000000000000 ) ) ;
#56 = APPLICATION_PROTOCOL_DEFINITION ( 'draft international standard', 'automotive_design', 1998, #491 ) ;
#57 = FACE_OUTER_BOUND ( 'NONE', #212, .T. ) ;
#58 = VECTOR ( 'NONE', #482, 1000.000000000000000 ) ;
#59 = ORIENTED_EDGE ( 'NONE', *, *, #494, .F. ) ;
#60 = EDGE_CURVE ( 'NONE', #511, #358, #618, .T. ) ;
#61 = ADVANCED_FACE ( 'NONE', ( #413 ), #520, .F. ) ;
#62 = CYLINDRICAL_SURFACE ( 'NONE', #552, 2.000000000000001776 ) ;
#63 = VERTEX_POINT ( 'NONE', #119 ) ;
#64 = DIRECTION ( 'NONE',  ( -0.000000000000000000, -0.000000000000000000, -1.000000000000000000 ) ) ;
#65 = CARTESIAN_POINT ( 'NONE',  ( -41.13620667976217504, 23.75000000000234124, 0.000000000000000000 ) ) ;
#66 = EDGE_LOOP ( 'NONE', ( #525, #3 ) ) ;
#67 = FACE_OUTER_BOUND ( 'NONE', #533, .T. ) ;
#68 = CARTESIAN_POINT ( 'NONE',  ( -43.13620667976488221, -23.74999999999766587, 0.000000000000000000 ) ) ;
#69 = EDGE_CURVE ( 'NONE', #289, #19, #605, .T. ) ;
#70 = AXIS2_PLACEMENT_3D ( 'NONE', #45, #288, #436 ) ;
#71 = EDGE_LOOP ( 'NONE', ( #143, #284 ) ) ;
#72 = AXIS2_PLACEMENT_3D ( 'NONE', #202, #550, #462 ) ;
#73 = PRESENTATION_LAYER_ASSIGNMENT (  '', '', ( #352 ) ) ;
#74 = CARTESIAN_POINT ( 'NONE',  ( 43.13620667975951051, 23.74999999999764100, 42.00000000000000000 ) ) ;
#75 = CARTESIAN_POINT ( 'NONE',  ( 41.13620667975679623, -23.75000000000234834, 1.000000000000000888 ) ) ;
#76 = CARTESIAN_POINT ( 'NONE',  ( 0.000000000000000000, 0.000000000000000000, 0.000000000000000000 ) ) ;
#77 = CARTESIAN_POINT ( 'NONE',  ( -43.13620667976217504, 23.75000000000234124, 1.000000000000000888 ) ) ;
#78 = ORIENTED_EDGE ( 'NONE', *, *, #596, .F. ) ;
#79 = CARTESIAN_POINT ( 'NONE',  ( 0.000000000000000000, 0.000000000000000000, 42.00000000000000000 ) ) ;
#80 = DIRECTION ( 'NONE',  ( 0.000000000000000000, 0.000000000000000000, 1.000000000000000000 ) ) ;
#81 = ORIENTED_EDGE ( 'NONE', *, *, #37, .T. ) ;
#82 = CIRCLE ( 'NONE', #475, 2.000000000000001776 ) ;
#83 = ADVANCED_FACE ( 'NONE', ( #568 ), #509, .F. ) ;
#84 = DIRECTION ( 'NONE',  ( 0.000000000000000000, 0.000000000000000000, -1.000000000000000000 ) ) ;
#85 = EDGE_CURVE ( 'NONE', #19, #289, #414, .T. ) ;
#86 = DIRECTION ( 'NONE',  ( 1.000000000000000000, 0.000000000000000000, 0.000000000000000000 ) ) ;
#87 = CYLINDRICAL_SURFACE ( 'NONE', #435, 2.000000000000000444 ) ;
#88 = CARTESIAN_POINT ( 'NONE',  ( 0.000000000000000000, 0.000000000000000000, 1.000000000000000000 ) ) ;
#89 = DIRECTION ( 'NONE',  ( 0.000000000000000000, 0.000000000000000000, -1.000000000000000000 ) ) ;
#90 = ORIENTED_EDGE ( 'NONE', *, *, #258, .F. ) ;
#91 = CARTESIAN_POINT ( 'NONE',  ( -5.382673574888913610E-12, -47.50000000000000000, 0.000000000000000000 ) ) ;
#92 = ORIENTED_EDGE ( 'NONE', *, *, #578, .F. ) ;
#93 = ADVANCED_FACE ( 'NONE', ( #264 ), #216, .F. ) ;
#94 =( GEOMETRIC_REPRESENTATION_CONTEXT ( 3 ) GLOBAL_UNCERTAINTY_ASSIGNED_CONTEXT ( ( #40 ) ) GLOBAL_UNIT_ASSIGNED_CONTEXT ( ( #633, #392, #585 ) ) REPRESENTATION_CONTEXT ( 'NONE', 'WORKASPACE' ) );
#95 = VECTOR ( 'NONE', #130, 1000.000000000000000 ) ;
#96 = DIRECTION ( 'NONE',  ( 0.000000000000000000, 0.000000000000000000, 1.000000000000000000 ) ) ;
#97 = CARTESIAN_POINT ( 'NONE',  ( 41.13620667975951051, 23.74999999999764100, 42.00000000000000000 ) ) ;
#98 = FACE_BOUND ( 'NONE', #408, .T. ) ;
#99 = PRODUCT ( 'dichtung', 'dichtung', '', ( #445 ) ) ;
#100 = ORIENTED_EDGE ( 'NONE', *, *, #359, .T. ) ;
#101 = DIRECTION ( 'NONE',  ( -0.000000000000000000, -0.000000000000000000, -1.000000000000000000 ) ) ;
#102 = EDGE_LOOP ( 'NONE', ( #447, #226, #547, #505 ) ) ;
#103 = CIRCLE ( 'NONE', #271, 2.000000000000001776 ) ;
#104 = COLOUR_RGB ( '',0.7921568627450980005, 0.8196078431372548767, 0.9333333333333333481 ) ;
#105 = ORIENTED_EDGE ( 'NONE', *, *, #458, .T. ) ;
#106 = CARTESIAN_POINT ( 'NONE',  ( -43.13620667976488221, -23.74999999999766587, 42.00000000000000000 ) ) ;
#107 = SHAPE_DEFINITION_REPRESENTATION ( #256, #390 ) ;
#108 = ORIENTED_EDGE ( 'NONE', *, *, #133, .T. ) ;
#109 = FILL_AREA_STYLE ('',( #554 ) ) ;
#110 = VECTOR ( 'NONE', #324, 1000.000000000000000 ) ;
#111 = CYLINDRICAL_SURFACE ( 'NONE', #584, 2.000000000000000444 ) ;
#112 = CIRCLE ( 'NONE', #453, 2.000000000000000444 ) ;
#113 = AXIS2_PLACEMENT_3D ( 'NONE', #321, #64, #273 ) ;
#114 = ORIENTED_EDGE ( 'NONE', *, *, #386, .T. ) ;
#115 = CARTESIAN_POINT ( 'NONE',  ( 43.13620667975951051, 23.74999999999764100, 1.000000000000000888 ) ) ;
#116 = CIRCLE ( 'NONE', #27, 42.00000000000000000 ) ;
#117 = ORIENTED_EDGE ( 'NONE', *, *, #522, .F. ) ;
#118 = EDGE_CURVE ( 'NONE', #456, #396, #82, .T. ) ;
#119 = CARTESIAN_POINT ( 'NONE',  ( 39.13620667975678913, -23.75000000000234834, 1.000000000000000888 ) ) ;
#120 = CARTESIAN_POINT ( 'NONE',  ( -43.13620667976217504, 23.75000000000234124, 0.000000000000000000 ) ) ;
#121 = ORIENTED_EDGE ( 'NONE', *, *, #267, .T. ) ;
#122 = DIRECTION ( 'NONE',  ( -1.000000000000000000, 0.000000000000000000, 0.000000000000000000 ) ) ;
#123 = DIRECTION ( 'NONE',  ( 0.000000000000000000, 0.000000000000000000, -1.000000000000000000 ) ) ;
#124 = EDGE_CURVE ( 'NONE', #329, #577, #303, .T. ) ;
#125 = ORIENTED_EDGE ( 'NONE', *, *, #258, .T. ) ;
#126 = VECTOR ( 'NONE', #630, 1000.000000000000000 ) ;
#127 = FACE_BOUND ( 'NONE', #492, .T. ) ;
#128 = ORIENTED_EDGE ( 'NONE', *, *, #132, .T. ) ;
#129 = DIRECTION ( 'NONE',  ( -0.000000000000000000, -0.000000000000000000, -1.000000000000000000 ) ) ;
#130 = DIRECTION ( 'NONE',  ( -0.000000000000000000, -0.000000000000000000, -1.000000000000000000 ) ) ;
#131 = ORIENTED_EDGE ( 'NONE', *, *, #50, .F. ) ;
#132 = EDGE_CURVE ( 'NONE', #236, #63, #196, .T. ) ;
#133 = EDGE_CURVE ( 'NONE', #574, #189, #527, .T. ) ;
#134 = DIRECTION ( 'NONE',  ( -1.000000000000000000, 0.000000000000000000, 0.000000000000000000 ) ) ;
#135 = DIRECTION ( 'NONE',  ( -0.000000000000000000, -0.000000000000000000, -1.000000000000000000 ) ) ;
#136 = CARTESIAN_POINT ( 'NONE',  ( -2.000000000005383249, -47.50000000000000000, 1.000000000000000888 ) ) ;
#137 = EDGE_LOOP ( 'NONE', ( #521, #334, #125, #317 ) ) ;
#138 = CIRCLE ( 'NONE', #283, 2.000000000000001776 ) ;
#139 = AXIS2_PLACEMENT_3D ( 'NONE', #330, #286, #180 ) ;
#140 = CARTESIAN_POINT ( 'NONE',  ( 41.13620667975679623, -23.75000000000234834, 42.00000000000000000 ) ) ;
#141 = CYLINDRICAL_SURFACE ( 'NONE', #625, 53.00000000000000711 ) ;
#142 = DIRECTION ( 'NONE',  ( -1.000000000000000000, 0.000000000000000000, 0.000000000000000000 ) ) ;
#143 = ORIENTED_EDGE ( 'NONE', *, *, #430, .F. ) ;
#144 = CARTESIAN_POINT ( 'NONE',  ( -43.13620667976488221, -23.74999999999766587, 1.000000000000000888 ) ) ;
#145 = LINE ( 'NONE', #293, #312 ) ;
#146 = EDGE_LOOP ( 'NONE', ( #291, #13, #416, #631 ) ) ;
#147 = EDGE_CURVE ( 'NONE', #483, #577, #579, .T. ) ;
#148 = CIRCLE ( 'NONE', #360, 2.000000000000000444 ) ;
#149 = CYLINDRICAL_SURFACE ( 'NONE', #156, 2.000000000000001776 ) ;
#150 = VERTEX_POINT ( 'NONE', #307 ) ;
#151 = FACE_OUTER_BOUND ( 'NONE', #347, .T. ) ;
#152 = ORIENTED_EDGE ( 'NONE', *, *, #359, .F. ) ;
#153 = FACE_OUTER_BOUND ( 'NONE', #7, .T. ) ;
#154 = ORIENTED_EDGE ( 'NONE', *, *, #558, .T. ) ;
#155 = DIRECTION ( 'NONE',  ( -1.000000000000000000, 0.000000000000000000, 0.000000000000000000 ) ) ;
#156 = AXIS2_PLACEMENT_3D ( 'NONE', #590, #434, #287 ) ;
#157 = AXIS2_PLACEMENT_3D ( 'NONE', #361, #507, #501 ) ;
#158 = ORIENTED_EDGE ( 'NONE', *, *, #47, .T. ) ;
#159 = DIRECTION ( 'NONE',  ( -1.000000000000000000, 0.000000000000000000, 0.000000000000000000 ) ) ;
#160 = EDGE_CURVE ( 'NONE', #401, #306, #404, .T. ) ;
#161 = CARTESIAN_POINT ( 'NONE',  ( -2.000000000000000444, 47.50000000000000711, 1.000000000000000888 ) ) ;
#162 =( NAMED_UNIT ( * ) SI_UNIT ( $, .STERADIAN. ) SOLID_ANGLE_UNIT ( ) );
#163 = DIRECTION ( 'NONE',  ( 1.000000000000000000, 0.000000000000000000, 0.000000000000000000 ) ) ;
#164 = CARTESIAN_POINT ( 'NONE',  ( 39.13620667975678913, -23.75000000000234834, 42.00000000000000000 ) ) ;
#165 = CIRCLE ( 'NONE', #528, 2.000000000000000444 ) ;
#166 = CIRCLE ( 'NONE', #529, 42.00000000000000000 ) ;
#167 = CARTESIAN_POINT ( 'NONE',  ( -41.13620667976217504, 23.75000000000234124, 1.000000000000000888 ) ) ;
#168 = CYLINDRICAL_SURFACE ( 'NONE', #185, 2.000000000000001776 ) ;
#169 = ORIENTED_EDGE ( 'NONE', *, *, #343, .F. ) ;
#170 = CARTESIAN_POINT ( 'NONE',  ( -39.13620667976216794, 23.75000000000234124, 1.000000000000000888 ) ) ;
#171 = DIRECTION ( 'NONE',  ( -0.000000000000000000, -0.000000000000000000, -1.000000000000000000 ) ) ;
#172 = ORIENTED_EDGE ( 'NONE', *, *, #405, .F. ) ;
#173 = DIRECTION ( 'NONE',  ( -1.000000000000000000, 0.000000000000000000, 0.000000000000000000 ) ) ;
#174 = CARTESIAN_POINT ( 'NONE',  ( 0.000000000000000000, 0.000000000000000000, 1.000000000000000888 ) ) ;
#175 = ORIENTED_EDGE ( 'NONE', *, *, #147, .T. ) ;
#176 = PLANE ( 'NONE',  #298 ) ;
#177 = CARTESIAN_POINT ( 'NONE',  ( 41.13620667975679623, -23.75000000000234834, 0.000000000000000000 ) ) ;
#178 = ADVANCED_FACE ( 'NONE', ( #153 ), #208, .F. ) ;
#179 = VERTEX_POINT ( 'NONE', #161 ) ;
#180 = DIRECTION ( 'NONE',  ( 1.000000000000000000, 0.000000000000000000, 0.000000000000000000 ) ) ;
#181 = DIRECTION ( 'NONE',  ( -1.000000000000000000, 0.000000000000000000, 0.000000000000000000 ) ) ;
#182 = ORIENTED_EDGE ( 'NONE', *, *, #222, .F. ) ;
#183 = FACE_OUTER_BOUND ( 'NONE', #201, .T. ) ;
#184 = ORIENTED_EDGE ( 'NONE', *, *, #69, .T. ) ;
#185 = AXIS2_PLACEMENT_3D ( 'NONE', #410, #365, #18 ) ;
#186 = EDGE_CURVE ( 'NONE', #490, #150, #285, .T. ) ;
#187 = AXIS2_PLACEMENT_3D ( 'NONE', #8, #199, #204 ) ;
#188 = CARTESIAN_POINT ( 'NONE',  ( -41.13620667976487510, -23.74999999999766587, 0.000000000000000000 ) ) ;
#189 = VERTEX_POINT ( 'NONE', #351 ) ;
#190 = CYLINDRICAL_SURFACE ( 'NONE', #16, 53.00000000000000711 ) ;
#191 = DIRECTION ( 'NONE',  ( -0.000000000000000000, -0.000000000000000000, -1.000000000000000000 ) ) ;
#192 = ORIENTED_EDGE ( 'NONE', *, *, #537, .F. ) ;
#193 = LINE ( 'NONE', #345, #126 ) ;
#194 = EDGE_LOOP ( 'NONE', ( #480, #229 ) ) ;
#195 = CIRCLE ( 'NONE', #72, 53.00000000000000711 ) ;
#196 = CIRCLE ( 'NONE', #139, 2.000000000000001776 ) ;
#197 = CARTESIAN_POINT ( 'NONE',  ( 39.13620667975950340, 23.74999999999764100, 42.00000000000000000 ) ) ;
#198 = ORIENTED_EDGE ( 'NONE', *, *, #160, .T. ) ;
#199 = DIRECTION ( 'NONE',  ( 0.000000000000000000, 0.000000000000000000, 1.000000000000000000 ) ) ;
#200 = AXIS2_PLACEMENT_3D ( 'NONE', #615, #460, #315 ) ;
#201 = EDGE_LOOP ( 'NONE', ( #487, #628, #114, #592 ) ) ;
#202 = CARTESIAN_POINT ( 'NONE',  ( 0.000000000000000000, 0.000000000000000000, 1.000000000000000000 ) ) ;
#203 = VERTEX_POINT ( 'NONE', #496 ) ;
#204 = DIRECTION ( 'NONE',  ( 1.000000000000000000, 0.000000000000000000, 0.000000000000000000 ) ) ;
#205 = EDGE_CURVE ( 'NONE', #401, #567, #362, .T. ) ;
#206 = AXIS2_PLACEMENT_3D ( 'NONE', #65, #214, #367 ) ;
#207 = PRESENTATION_STYLE_ASSIGNMENT (( #502 ) ) ;
#208 = CYLINDRICAL_SURFACE ( 'NONE', #561, 42.00000000000000000 ) ;
#209 = EDGE_LOOP ( 'NONE', ( #353, #385, #108, #36 ) ) ;
#210 = DIRECTION ( 'NONE',  ( 0.000000000000000000, 0.000000000000000000, 1.000000000000000000 ) ) ;
#211 = LINE ( 'NONE', #266, #49 ) ;
#212 = EDGE_LOOP ( 'NONE', ( #184, #218, #440, #314 ) ) ;
#213 = CYLINDRICAL_SURFACE ( 'NONE', #477, 42.00000000000000000 ) ;
#214 = DIRECTION ( 'NONE',  ( 0.000000000000000000, 0.000000000000000000, -1.000000000000000000 ) ) ;
#215 = CIRCLE ( 'NONE', #157, 2.000000000000001776 ) ;
#216 = CYLINDRICAL_SURFACE ( 'NONE', #113, 2.000000000000001776 ) ;
#217 = DIRECTION ( 'NONE',  ( 0.000000000000000000, 0.000000000000000000, 1.000000000000000000 ) ) ;
#218 = ORIENTED_EDGE ( 'NONE', *, *, #10, .T. ) ;
#219 = CARTESIAN_POINT ( 'NONE',  ( 1.999999999994617639, -47.50000000000000000, 0.000000000000000000 ) ) ;
#220 = LINE ( 'NONE', #164, #95 ) ;
#221 = ORIENTED_EDGE ( 'NONE', *, *, #186, .T. ) ;
#222 = EDGE_CURVE ( 'NONE', #495, #337, #215, .T. ) ;
#223 = DIRECTION ( 'NONE',  ( 0.000000000000000000, 0.000000000000000000, 1.000000000000000000 ) ) ;
#224 = VECTOR ( 'NONE', #622, 1000.000000000000000 ) ;
#225 = FACE_OUTER_BOUND ( 'NONE', #381, .T. ) ;
#226 = ORIENTED_EDGE ( 'NONE', *, *, #299, .T. ) ;
#227 = VECTOR ( 'NONE', #563, 1000.000000000000000 ) ;
#228 = CARTESIAN_POINT ( 'NONE',  ( -2.000000000005383249, -47.50000000000000000, 42.00000000000000000 ) ) ;
#229 = ORIENTED_EDGE ( 'NONE', *, *, #378, .F. ) ;
#230 = CARTESIAN_POINT ( 'NONE',  ( -39.13620667976216794, 23.75000000000234124, 0.000000000000000000 ) ) ;
#231 = DIRECTION ( 'NONE',  ( 1.000000000000000000, 0.000000000000000000, 0.000000000000000000 ) ) ;
#232 = EDGE_LOOP ( 'NONE', ( #607, #340 ) ) ;
#233 = EDGE_CURVE ( 'NONE', #617, #294, #451, .T. ) ;
#234 = CARTESIAN_POINT ( 'NONE',  ( 43.13620667975951051, 23.74999999999764100, 0.000000000000000000 ) ) ;
#235 = CARTESIAN_POINT ( 'NONE',  ( 2.000000000000000444, 47.50000000000000711, 0.000000000000000000 ) ) ;
#236 = VERTEX_POINT ( 'NONE', #504 ) ;
#237 = CIRCLE ( 'NONE', #497, 2.000000000000000444 ) ;
#238 = AXIS2_PLACEMENT_3D ( 'NONE', #409, #24, #562 ) ;
#239 = DIRECTION ( 'NONE',  ( -1.000000000000000000, 0.000000000000000000, 0.000000000000000000 ) ) ;
#240 = FACE_OUTER_BOUND ( 'NONE', #638, .T. ) ;
#241 = ORIENTED_EDGE ( 'NONE', *, *, #23, .F. ) ;
#242 = UNCERTAINTY_MEASURE_WITH_UNIT (LENGTH_MEASURE( 1.000000000000000082E-05 ), #557, 'distance_accuracy_value', 'NONE');
#243 = CARTESIAN_POINT ( 'NONE',  ( 39.13620667975678913, -23.75000000000234834, 0.000000000000000000 ) ) ;
#244 = DIRECTION ( 'NONE',  ( -1.000000000000000000, 0.000000000000000000, 0.000000000000000000 ) ) ;
#245 = VERTEX_POINT ( 'NONE', #5 ) ;
#246 = CARTESIAN_POINT ( 'NONE',  ( 0.000000000000000000, 0.000000000000000000, 0.000000000000000000 ) ) ;
#247 = EDGE_CURVE ( 'NONE', #294, #245, #166, .T. ) ;
#248 = ADVANCED_FACE ( 'NONE', ( #599 ), #111, .F. ) ;
#249 = VERTEX_POINT ( 'NONE', #254 ) ;
#250 = DIRECTION ( 'NONE',  ( 1.000000000000000000, 0.000000000000000000, 0.000000000000000000 ) ) ;
#251 = CIRCLE ( 'NONE', #370, 2.000000000000001776 ) ;
#252 = CARTESIAN_POINT ( 'NONE',  ( 0.000000000000000000, 0.000000000000000000, 42.00000000000000000 ) ) ;
#253 = ORIENTED_EDGE ( 'NONE', *, *, #205, .F. ) ;
#254 = CARTESIAN_POINT ( 'NONE',  ( -53.00000000000000711, 0.000000000000000000, 0.000000000000000000 ) ) ;
#255 = ADVANCED_FACE ( 'NONE', ( #57 ), #62, .F. ) ;
#256 = PRODUCT_DEFINITION_SHAPE ( 'NONE', 'NONE',  #565 ) ;
#257 = CARTESIAN_POINT ( 'NONE',  ( 42.00000000000000000, 5.143516556418882533E-15, 42.00000000000000000 ) ) ;
#258 = EDGE_CURVE ( 'NONE', #469, #304, #263, .T. ) ;
#259 = LINE ( 'NONE', #197, #403 ) ;
#260 = AXIS2_PLACEMENT_3D ( 'NONE', #91, #542, #142 ) ;
#261 = DIRECTION ( 'NONE',  ( -1.000000000000000000, 0.000000000000000000, 0.000000000000000000 ) ) ;
#262 = ORIENTED_EDGE ( 'NONE', *, *, #35, .T. ) ;
#263 = LINE ( 'NONE', #106, #272 ) ;
#264 = FACE_OUTER_BOUND ( 'NONE', #137, .T. ) ;
#265 = MANIFOLD_SOLID_BREP ( 'Schnitt-Linear austragen1', #463 ) ;
#266 = CARTESIAN_POINT ( 'NONE',  ( -53.00000000000000711, 0.000000000000000000, 1.000000000000000000 ) ) ;
#267 = EDGE_CURVE ( 'NONE', #567, #401, #195, .T. ) ;
#268 = ORIENTED_EDGE ( 'NONE', *, *, #612, .F. ) ;
#269 = DIRECTION ( 'NONE',  ( 1.000000000000000000, 0.000000000000000000, -0.000000000000000000 ) ) ;
#270 = FACE_OUTER_BOUND ( 'NONE', #377, .T. ) ;
#271 = AXIS2_PLACEMENT_3D ( 'NONE', #627, #465, #328 ) ;
#272 = VECTOR ( 'NONE', #397, 1000.000000000000000 ) ;
#273 = DIRECTION ( 'NONE',  ( -1.000000000000000000, 0.000000000000000000, 0.000000000000000000 ) ) ;
#274 = AXIS2_PLACEMENT_3D ( 'NONE', #424, #15, #173 ) ;
#275 = CARTESIAN_POINT ( 'NONE',  ( -39.13620667976487510, -23.74999999999766587, 0.000000000000000000 ) ) ;
#276 = ORIENTED_EDGE ( 'NONE', *, *, #407, .F. ) ;
#277 = DIRECTION ( 'NONE',  ( -1.000000000000000000, 0.000000000000000000, 0.000000000000000000 ) ) ;
#278 = FACE_BOUND ( 'NONE', #544, .T. ) ;
#279 = ORIENTED_EDGE ( 'NONE', *, *, #118, .T. ) ;
#280 = EDGE_CURVE ( 'NONE', #203, #617, #1, .T. ) ;
#281 = DIRECTION ( 'NONE',  ( -1.000000000000000000, 0.000000000000000000, 0.000000000000000000 ) ) ;
#282 = CARTESIAN_POINT ( 'NONE',  ( 0.000000000000000000, 0.000000000000000000, 0.000000000000000000 ) ) ;
#283 = AXIS2_PLACEMENT_3D ( 'NONE', #188, #89, #244 ) ;
#284 = ORIENTED_EDGE ( 'NONE', *, *, #635, .F. ) ;
#285 = CIRCLE ( 'NONE', #382, 2.000000000000001776 ) ;
#286 = DIRECTION ( 'NONE',  ( 0.000000000000000000, 0.000000000000000000, 1.000000000000000000 ) ) ;
#287 = DIRECTION ( 'NONE',  ( -1.000000000000000000, 0.000000000000000000, 0.000000000000000000 ) ) ;
#288 = DIRECTION ( 'NONE',  ( 0.000000000000000000, 0.000000000000000000, 1.000000000000000000 ) ) ;
#289 = VERTEX_POINT ( 'NONE', #77 ) ;
#290 = CARTESIAN_POINT ( 'NONE',  ( -41.13620667976487510, -23.74999999999766587, 1.000000000000000888 ) ) ;
#291 = ORIENTED_EDGE ( 'NONE', *, *, #147, .F. ) ;
#292 = PRODUCT_DEFINITION_CONTEXT ( 'detailed design', #38, 'design' ) ;
#293 = CARTESIAN_POINT ( 'NONE',  ( -43.13620667976217504, 23.75000000000234124, 42.00000000000000000 ) ) ;
#294 = VERTEX_POINT ( 'NONE', #25 ) ;
#295 = AXIS2_PLACEMENT_3D ( 'NONE', #75, #316, #510 ) ;
#296 = DIRECTION ( 'NONE',  ( -1.000000000000000000, 0.000000000000000000, 0.000000000000000000 ) ) ;
#297 = FACE_BOUND ( 'NONE', #194, .T. ) ;
#298 = AXIS2_PLACEMENT_3D ( 'NONE', #418, #210, #269 ) ;
#299 = EDGE_CURVE ( 'NONE', #564, #26, #455, .T. ) ;
#300 = ORIENTED_EDGE ( 'NONE', *, *, #407, .T. ) ;
#301 = ORIENTED_EDGE ( 'NONE', *, *, #405, .T. ) ;
#302 = CIRCLE ( 'NONE', #551, 53.00000000000000711 ) ;
#303 = CIRCLE ( 'NONE', #461, 2.000000000000000444 ) ;
#304 = VERTEX_POINT ( 'NONE', #68 ) ;
#305 = DIRECTION ( 'NONE',  ( -1.000000000000000000, 0.000000000000000000, 0.000000000000000000 ) ) ;
#306 = VERTEX_POINT ( 'NONE', #325 ) ;
#307 = CARTESIAN_POINT ( 'NONE',  ( 39.13620667975950340, 23.74999999999764100, 0.000000000000000000 ) ) ;
#308 = CARTESIAN_POINT ( 'NONE',  ( 41.13620667975679623, -23.75000000000234834, 42.00000000000000000 ) ) ;
#309 = DIRECTION ( 'NONE',  ( 0.000000000000000000, 0.000000000000000000, -1.000000000000000000 ) ) ;
#310 = ORIENTED_EDGE ( 'NONE', *, *, #60, .T. ) ;
#311 = AXIS2_PLACEMENT_3D ( 'NONE', #97, #191, #296 ) ;
#312 = VECTOR ( 'NONE', #535, 1000.000000000000000 ) ;
#313 = CARTESIAN_POINT ( 'NONE',  ( 41.13620667975951051, 23.74999999999764100, 0.000000000000000000 ) ) ;
#314 = ORIENTED_EDGE ( 'NONE', *, *, #602, .F. ) ;
#315 = DIRECTION ( 'NONE',  ( 1.000000000000000000, 0.000000000000000000, 0.000000000000000000 ) ) ;
#316 = DIRECTION ( 'NONE',  ( 0.000000000000000000, 0.000000000000000000, 1.000000000000000000 ) ) ;
#317 = ORIENTED_EDGE ( 'NONE', *, *, #612, .T. ) ;
#318 = CARTESIAN_POINT ( 'NONE',  ( -41.13620667976217504, 23.75000000000234124, 1.000000000000000888 ) ) ;
#319 = FACE_BOUND ( 'NONE', #71, .T. ) ;
#320 = ORIENTED_EDGE ( 'NONE', *, *, #531, .T. ) ;
#321 = CARTESIAN_POINT ( 'NONE',  ( -41.13620667976487510, -23.74999999999766587, 42.00000000000000000 ) ) ;
#322 = CARTESIAN_POINT ( 'NONE',  ( 53.00000000000000711, 6.490628035480973107E-15, 1.000000000000000000 ) ) ;
#323 = AXIS2_PLACEMENT_3D ( 'NONE', #167, #223, #575 ) ;
#324 = DIRECTION ( 'NONE',  ( -0.000000000000000000, -0.000000000000000000, -1.000000000000000000 ) ) ;
#325 = CARTESIAN_POINT ( 'NONE',  ( 53.00000000000000711, 6.490628035480973107E-15, 0.000000000000000000 ) ) ;
#326 = ORIENTED_EDGE ( 'NONE', *, *, #233, .F. ) ;
#327 = CARTESIAN_POINT ( 'NONE',  ( 41.13620667975951051, 23.74999999999764100, 1.000000000000000888 ) ) ;
#328 = DIRECTION ( 'NONE',  ( 1.000000000000000000, 0.000000000000000000, 0.000000000000000000 ) ) ;
#329 = VERTEX_POINT ( 'NONE', #623 ) ;
#330 = CARTESIAN_POINT ( 'NONE',  ( 41.13620667975679623, -23.75000000000234834, 1.000000000000000888 ) ) ;
#331 = DIRECTION ( 'NONE',  ( 1.000000000000000000, 0.000000000000000000, 0.000000000000000000 ) ) ;
#332 = CARTESIAN_POINT ( 'NONE',  ( 1.999999999994617639, -47.50000000000000000, 1.000000000000000888 ) ) ;
#333 = CIRCLE ( 'NONE', #426, 2.000000000000001776 ) ;
#334 = ORIENTED_EDGE ( 'NONE', *, *, #578, .T. ) ;
#335 = ADVANCED_FACE ( 'NONE', ( #270 ), #168, .F. ) ;
#336 = FACE_OUTER_BOUND ( 'NONE', #348, .T. ) ;
#337 = VERTEX_POINT ( 'NONE', #120 ) ;
#338 = CARTESIAN_POINT ( 'NONE',  ( 41.13620667975679623, -23.75000000000234834, 0.000000000000000000 ) ) ;
#339 = DIRECTION ( 'NONE',  ( 0.000000000000000000, 0.000000000000000000, 1.000000000000000000 ) ) ;
#340 = ORIENTED_EDGE ( 'NONE', *, *, #247, .F. ) ;
#341 = DIRECTION ( 'NONE',  ( -1.000000000000000000, 0.000000000000000000, 0.000000000000000000 ) ) ;
#342 = FACE_BOUND ( 'NONE', #350, .T. ) ;
#343 = EDGE_CURVE ( 'NONE', #63, #515, #220, .T. ) ;
#344 = AXIS2_PLACEMENT_3D ( 'NONE', #174, #80, #415 ) ;
#345 = CARTESIAN_POINT ( 'NONE',  ( -42.00000000000000000, 0.000000000000000000, 42.00000000000000000 ) ) ;
#346 = DIRECTION ( 'NONE',  ( -1.000000000000000000, 0.000000000000000000, 0.000000000000000000 ) ) ;
#347 = EDGE_LOOP ( 'NONE', ( #589, #128, #22, #600 ) ) ;
#348 = EDGE_LOOP ( 'NONE', ( #131, #100, #154, #262 ) ) ;
#349 = ADVANCED_FACE ( 'NONE', ( #127, #369, #572, #278, #319, #468, #363, #225 ), #513, .T. ) ;
#350 = EDGE_LOOP ( 'NONE', ( #268, #393 ) ) ;
#351 = CARTESIAN_POINT ( 'NONE',  ( -2.000000000005383249, -47.50000000000000000, 0.000000000000000000 ) ) ;
#352 = STYLED_ITEM ( 'NONE', ( #207 ), #265 ) ;
#353 = ORIENTED_EDGE ( 'NONE', *, *, #299, .F. ) ;
#354 = CARTESIAN_POINT ( 'NONE',  ( 0.000000000000000000, 47.50000000000000711, 42.00000000000000000 ) ) ;
#355 = CIRCLE ( 'NONE', #274, 2.000000000000001776 ) ;
#356 = EDGE_LOOP ( 'NONE', ( #466, #433 ) ) ;
#357 = EDGE_CURVE ( 'NONE', #249, #306, #302, .T. ) ;
#358 = VERTEX_POINT ( 'NONE', #275 ) ;
#359 = EDGE_CURVE ( 'NONE', #396, #456, #103, .T. ) ;
#360 = AXIS2_PLACEMENT_3D ( 'NONE', #388, #530, #346 ) ;
#361 = CARTESIAN_POINT ( 'NONE',  ( -41.13620667976217504, 23.75000000000234124, 0.000000000000000000 ) ) ;
#362 = CIRCLE ( 'NONE', #187, 53.00000000000000711 ) ;
#363 = FACE_BOUND ( 'NONE', #374, .T. ) ;
#364 = LINE ( 'NONE', #74, #224 ) ;
#365 = DIRECTION ( 'NONE',  ( -0.000000000000000000, -0.000000000000000000, -1.000000000000000000 ) ) ;
#366 = DIRECTION ( 'NONE',  ( -0.000000000000000000, -0.000000000000000000, -1.000000000000000000 ) ) ;
#367 = DIRECTION ( 'NONE',  ( -1.000000000000000000, 0.000000000000000000, 0.000000000000000000 ) ) ;
#368 = DIRECTION ( 'NONE',  ( -1.000000000000000000, 0.000000000000000000, 0.000000000000000000 ) ) ;
#369 = FACE_BOUND ( 'NONE', #620, .T. ) ;
#370 = AXIS2_PLACEMENT_3D ( 'NONE', #338, #580, #341 ) ;
#371 = EDGE_LOOP ( 'NONE', ( #253, #198, #420, #39 ) ) ;
#372 = CARTESIAN_POINT ( 'NONE',  ( -39.13620667976487510, -23.74999999999766587, 42.00000000000000000 ) ) ;
#373 = DIRECTION ( 'NONE',  ( -0.000000000000000000, -0.000000000000000000, -1.000000000000000000 ) ) ;
#374 = EDGE_LOOP ( 'NONE', ( #581, #152 ) ) ;
#375 = DIRECTION ( 'NONE',  ( -0.000000000000000000, -0.000000000000000000, -1.000000000000000000 ) ) ;
#376 = CYLINDRICAL_SURFACE ( 'NONE', #12, 2.000000000000001776 ) ;
#377 = EDGE_LOOP ( 'NONE', ( #624, #310, #81, #90 ) ) ;
#378 = EDGE_CURVE ( 'NONE', #389, #515, #412, .T. ) ;
#379 = EDGE_CURVE ( 'NONE', #236, #389, #14, .T. ) ;
#380 = CIRCLE ( 'NONE', #636, 42.00000000000000000 ) ;
#381 = EDGE_LOOP ( 'NONE', ( #121, #536 ) ) ;
#382 = AXIS2_PLACEMENT_3D ( 'NONE', #313, #309, #159 ) ;
#383 = DIRECTION ( 'NONE',  ( 1.000000000000000000, 0.000000000000000000, 0.000000000000000000 ) ) ;
#384 = FACE_OUTER_BOUND ( 'NONE', #102, .T. ) ;
#385 = ORIENTED_EDGE ( 'NONE', *, *, #522, .T. ) ;
#386 = EDGE_CURVE ( 'NONE', #567, #249, #211, .T. ) ;
#387 = FACE_OUTER_BOUND ( 'NONE', #641, .T. ) ;
#388 = CARTESIAN_POINT ( 'NONE',  ( 0.000000000000000000, 47.50000000000000711, 0.000000000000000000 ) ) ;
#389 = VERTEX_POINT ( 'NONE', #611 ) ;
#390 = ADVANCED_BREP_SHAPE_REPRESENTATION ( 'dichtung', ( #265, #452 ), #94 ) ;
#391 = CARTESIAN_POINT ( 'NONE',  ( 39.13620667975950340, 23.74999999999764100, 1.000000000000000888 ) ) ;
#392 =( NAMED_UNIT ( * ) PLANE_ANGLE_UNIT ( ) SI_UNIT ( $, .RADIAN. ) );
#393 = ORIENTED_EDGE ( 'NONE', *, *, #37, .F. ) ;
#394 = AXIS2_PLACEMENT_3D ( 'NONE', #308, #101, #503 ) ;
#395 = MECHANICAL_DESIGN_GEOMETRIC_PRESENTATION_REPRESENTATION (  '', ( #352 ), #516 ) ;
#396 = VERTEX_POINT ( 'NONE', #115 ) ;
#397 = DIRECTION ( 'NONE',  ( -0.000000000000000000, -0.000000000000000000, -1.000000000000000000 ) ) ;
#398 = VECTOR ( 'NONE', #366, 1000.000000000000000 ) ;
#399 = EDGE_LOOP ( 'NONE', ( #427, #570 ) ) ;
#400 = CARTESIAN_POINT ( 'NONE',  ( 0.000000000000000000, 0.000000000000000000, 0.000000000000000000 ) ) ;
#401 = VERTEX_POINT ( 'NONE', #322 ) ;
#402 = DIRECTION ( 'NONE',  ( -1.000000000000000000, 0.000000000000000000, 0.000000000000000000 ) ) ;
#403 = VECTOR ( 'NONE', #591, 1000.000000000000000 ) ;
#404 = LINE ( 'NONE', #448, #498 ) ;
#405 = EDGE_CURVE ( 'NONE', #63, #236, #613, .T. ) ;
#406 =( NAMED_UNIT ( * ) PLANE_ANGLE_UNIT ( ) SI_UNIT ( $, .RADIAN. ) );
#407 = EDGE_CURVE ( 'NONE', #337, #495, #444, .T. ) ;
#408 = EDGE_LOOP ( 'NONE', ( #560, #598 ) ) ;
#409 = CARTESIAN_POINT ( 'NONE',  ( -5.382673574888913610E-12, -47.50000000000000000, 42.00000000000000000 ) ) ;
#410 = CARTESIAN_POINT ( 'NONE',  ( -41.13620667976487510, -23.74999999999766587, 42.00000000000000000 ) ) ;
#411 = PRODUCT_DEFINITION_FORMATION_WITH_SPECIFIED_SOURCE ( 'ANY', '', #99, .NOT_KNOWN. ) ;
#412 = CIRCLE ( 'NONE', #28, 2.000000000000001776 ) ;
#413 = FACE_OUTER_BOUND ( 'NONE', #209, .T. ) ;
#414 = CIRCLE ( 'NONE', #518, 2.000000000000001776 ) ;
#415 = DIRECTION ( 'NONE',  ( 1.000000000000000000, 0.000000000000000000, 0.000000000000000000 ) ) ;
#416 = ORIENTED_EDGE ( 'NONE', *, *, #596, .T. ) ;
#417 = EDGE_CURVE ( 'NONE', #189, #26, #112, .T. ) ;
#418 = CARTESIAN_POINT ( 'NONE',  ( 0.000000000000000000, 0.000000000000000000, 0.000000000000000000 ) ) ;
#419 = DIRECTION ( 'NONE',  ( 0.000000000000000000, 0.000000000000000000, 1.000000000000000000 ) ) ;
#420 = ORIENTED_EDGE ( 'NONE', *, *, #537, .T. ) ;
#421 = DIRECTION ( 'NONE',  ( 0.000000000000000000, 0.000000000000000000, -1.000000000000000000 ) ) ;
#422 = CARTESIAN_POINT ( 'NONE',  ( 0.000000000000000000, 0.000000000000000000, 1.000000000000000000 ) ) ;
#423 = ORIENTED_EDGE ( 'NONE', *, *, #10, .F. ) ;
#424 = CARTESIAN_POINT ( 'NONE',  ( 41.13620667975951051, 23.74999999999764100, 0.000000000000000000 ) ) ;
#425 = DIRECTION ( 'NONE',  ( 1.000000000000000000, 0.000000000000000000, -0.000000000000000000 ) ) ;
#426 = AXIS2_PLACEMENT_3D ( 'NONE', #290, #339, #231 ) ;
#427 = ORIENTED_EDGE ( 'NONE', *, *, #35, .F. ) ;
#428 = CARTESIAN_POINT ( 'NONE',  ( 2.000000000000000444, 47.50000000000000711, 42.00000000000000000 ) ) ;
#429 = DIRECTION ( 'NONE',  ( -0.000000000000000000, -0.000000000000000000, -1.000000000000000000 ) ) ;
#430 = EDGE_CURVE ( 'NONE', #179, #483, #165, .T. ) ;
#431 = EDGE_LOOP ( 'NONE', ( #276, #182 ) ) ;
#432 = FACE_OUTER_BOUND ( 'NONE', #371, .T. ) ;
#433 = ORIENTED_EDGE ( 'NONE', *, *, #85, .F. ) ;
#434 = DIRECTION ( 'NONE',  ( -0.000000000000000000, -0.000000000000000000, -1.000000000000000000 ) ) ;
#435 = AXIS2_PLACEMENT_3D ( 'NONE', #479, #486, #442 ) ;
#436 = DIRECTION ( 'NONE',  ( 1.000000000000000000, 0.000000000000000000, 0.000000000000000000 ) ) ;
#437 = EDGE_LOOP ( 'NONE', ( #241, #117 ) ) ;
#438 = VECTOR ( 'NONE', #375, 1000.000000000000000 ) ;
#439 = CYLINDRICAL_SURFACE ( 'NONE', #311, 2.000000000000001776 ) ;
#440 = ORIENTED_EDGE ( 'NONE', *, *, #222, .T. ) ;
#441 = DIRECTION ( 'NONE',  ( 0.000000000000000000, 0.000000000000000000, 1.000000000000000000 ) ) ;
#442 = DIRECTION ( 'NONE',  ( -1.000000000000000000, 0.000000000000000000, 0.000000000000000000 ) ) ;
#443 = FACE_BOUND ( 'NONE', #66, .T. ) ;
#444 = CIRCLE ( 'NONE', #206, 2.000000000000001776 ) ;
#445 = PRODUCT_CONTEXT ( 'NONE', #491, 'mechanical' ) ;
#446 = VECTOR ( 'NONE', #11, 1000.000000000000000 ) ;
#447 = ORIENTED_EDGE ( 'NONE', *, *, #23, .T. ) ;
#448 = CARTESIAN_POINT ( 'NONE',  ( 53.00000000000000711, 6.490628035480973107E-15, 1.000000000000000000 ) ) ;
#449 = EDGE_LOOP ( 'NONE', ( #549, #46, #43, #553 ) ) ;
#450 = CARTESIAN_POINT ( 'NONE',  ( -41.13620667976217504, 23.75000000000234124, 42.00000000000000000 ) ) ;
#451 = LINE ( 'NONE', #257, #446 ) ;
#452 = AXIS2_PLACEMENT_3D ( 'NONE', #246, #556, #250 ) ;
#453 = AXIS2_PLACEMENT_3D ( 'NONE', #569, #123, #519 ) ;
#454 = ORIENTED_EDGE ( 'NONE', *, *, #430, .T. ) ;
#455 = LINE ( 'NONE', #616, #459 ) ;
#456 = VERTEX_POINT ( 'NONE', #391 ) ;
#457 = DIRECTION ( 'NONE',  ( 1.000000000000000000, 0.000000000000000000, 0.000000000000000000 ) ) ;
#458 = EDGE_CURVE ( 'NONE', #617, #203, #380, .T. ) ;
#459 = VECTOR ( 'NONE', #373, 1000.000000000000000 ) ;
#460 = DIRECTION ( 'NONE',  ( 0.000000000000000000, 0.000000000000000000, 1.000000000000000000 ) ) ;
#461 = AXIS2_PLACEMENT_3D ( 'NONE', #629, #84, #134 ) ;
#462 = DIRECTION ( 'NONE',  ( 1.000000000000000000, 0.000000000000000000, 0.000000000000000000 ) ) ;
#463 = CLOSED_SHELL ( 'NONE', ( #335, #44, #614, #545, #248, #255, #621, #493, #488, #349, #6, #473, #484, #83, #546, #61, #178, #93 ) ) ;
#464 = CARTESIAN_POINT ( 'NONE',  ( -41.13620667976487510, -23.74999999999766587, 0.000000000000000000 ) ) ;
#465 = DIRECTION ( 'NONE',  ( 0.000000000000000000, 0.000000000000000000, 1.000000000000000000 ) ) ;
#466 = ORIENTED_EDGE ( 'NONE', *, *, #69, .F. ) ;
#467 = DIRECTION ( 'NONE',  ( 0.000000000000000000, 0.000000000000000000, -1.000000000000000000 ) ) ;
#468 = FACE_BOUND ( 'NONE', #356, .T. ) ;
#469 = VERTEX_POINT ( 'NONE', #144 ) ;
#470 = EDGE_CURVE ( 'NONE', #515, #389, #251, .T. ) ;
#471 = FACE_BOUND ( 'NONE', #399, .T. ) ;
#472 = CIRCLE ( 'NONE', #539, 53.00000000000000711 ) ;
#473 = ADVANCED_FACE ( 'NONE', ( #336 ), #481, .F. ) ;
#474 = CARTESIAN_POINT ( 'NONE',  ( -5.382673574888913610E-12, -47.50000000000000000, 1.000000000000000888 ) ) ;
#475 = AXIS2_PLACEMENT_3D ( 'NONE', #327, #610, #163 ) ;
#476 = ORIENTED_EDGE ( 'NONE', *, *, #458, .F. ) ;
#477 = AXIS2_PLACEMENT_3D ( 'NONE', #79, #626, #277 ) ;
#478 = DIRECTION ( 'NONE',  ( -1.000000000000000000, 0.000000000000000000, 0.000000000000000000 ) ) ;
#479 = CARTESIAN_POINT ( 'NONE',  ( -5.382673574888913610E-12, -47.50000000000000000, 42.00000000000000000 ) ) ;
#480 = ORIENTED_EDGE ( 'NONE', *, *, #470, .F. ) ;
#481 = CYLINDRICAL_SURFACE ( 'NONE', #506, 2.000000000000001776 ) ;
#482 = DIRECTION ( 'NONE',  ( -0.000000000000000000, -0.000000000000000000, -1.000000000000000000 ) ) ;
#483 = VERTEX_POINT ( 'NONE', #593 ) ;
#484 = ADVANCED_FACE ( 'NONE', ( #387 ), #149, .F. ) ;
#485 = CARTESIAN_POINT ( 'NONE',  ( 0.000000000000000000, 0.000000000000000000, 1.000000000000000888 ) ) ;
#486 = DIRECTION ( 'NONE',  ( -0.000000000000000000, -0.000000000000000000, -1.000000000000000000 ) ) ;
#487 = ORIENTED_EDGE ( 'NONE', *, *, #160, .F. ) ;
#488 = ADVANCED_FACE ( 'NONE', ( #183 ), #190, .T. ) ;
#489 = LINE ( 'NONE', #640, #58 ) ;
#490 = VERTEX_POINT ( 'NONE', #234 ) ;
#491 = APPLICATION_CONTEXT ( 'automotive_design' ) ;
#492 = EDGE_LOOP ( 'NONE', ( #59, #92 ) ) ;
#493 = ADVANCED_FACE ( 'NONE', ( #432 ), #141, .T. ) ;
#494 = EDGE_CURVE ( 'NONE', #469, #511, #41, .T. ) ;
#495 = VERTEX_POINT ( 'NONE', #230 ) ;
#496 = CARTESIAN_POINT ( 'NONE',  ( -42.00000000000000000, 0.000000000000000000, 1.000000000000000888 ) ) ;
#497 = AXIS2_PLACEMENT_3D ( 'NONE', #474, #441, #331 ) ;
#498 = VECTOR ( 'NONE', #559, 1000.000000000000000 ) ;
#499 = DIRECTION ( 'NONE',  ( -0.000000000000000000, -0.000000000000000000, -1.000000000000000000 ) ) ;
#500 = ORIENTED_EDGE ( 'NONE', *, *, #378, .T. ) ;
#501 = DIRECTION ( 'NONE',  ( -1.000000000000000000, 0.000000000000000000, 0.000000000000000000 ) ) ;
#502 = SURFACE_STYLE_USAGE ( .BOTH. , #4 ) ;
#503 = DIRECTION ( 'NONE',  ( -1.000000000000000000, 0.000000000000000000, 0.000000000000000000 ) ) ;
#504 = CARTESIAN_POINT ( 'NONE',  ( 43.13620667975679623, -23.75000000000234834, 1.000000000000000888 ) ) ;
#505 = ORIENTED_EDGE ( 'NONE', *, *, #133, .F. ) ;
#506 = AXIS2_PLACEMENT_3D ( 'NONE', #632, #532, #478 ) ;
#507 = DIRECTION ( 'NONE',  ( 0.000000000000000000, 0.000000000000000000, -1.000000000000000000 ) ) ;
#508 = EDGE_LOOP ( 'NONE', ( #301, #52, #500, #169 ) ) ;
#509 = CYLINDRICAL_SURFACE ( 'NONE', #2, 2.000000000000000444 ) ;
#510 = DIRECTION ( 'NONE',  ( 1.000000000000000000, 0.000000000000000000, 0.000000000000000000 ) ) ;
#511 = VERTEX_POINT ( 'NONE', #534 ) ;
#512 = DIRECTION ( 'NONE',  ( 1.000000000000000000, 0.000000000000000000, 0.000000000000000000 ) ) ;
#513 = PLANE ( 'NONE',  #29 ) ;
#514 = PRODUCT_RELATED_PRODUCT_CATEGORY ( 'part', '', ( #99 ) ) ;
#515 = VERTEX_POINT ( 'NONE', #243 ) ;
#516 =( GEOMETRIC_REPRESENTATION_CONTEXT ( 3 ) GLOBAL_UNCERTAINTY_ASSIGNED_CONTEXT ( ( #242 ) ) GLOBAL_UNIT_ASSIGNED_CONTEXT ( ( #557, #406, #162 ) ) REPRESENTATION_CONTEXT ( 'NONE', 'WORKASPACE' ) );
#517 = CARTESIAN_POINT ( 'NONE',  ( -39.13620667976216794, 23.75000000000234124, 42.00000000000000000 ) ) ;
#518 = AXIS2_PLACEMENT_3D ( 'NONE', #318, #17, #512 ) ;
#519 = DIRECTION ( 'NONE',  ( -1.000000000000000000, 0.000000000000000000, 0.000000000000000000 ) ) ;
#520 = CYLINDRICAL_SURFACE ( 'NONE', #238, 2.000000000000000444 ) ;
#521 = ORIENTED_EDGE ( 'NONE', *, *, #60, .F. ) ;
#522 = EDGE_CURVE ( 'NONE', #564, #574, #237, .T. ) ;
#523 = LINE ( 'NONE', #517, #398 ) ;
#524 = DIRECTION ( 'NONE',  ( -1.000000000000000000, 0.000000000000000000, 0.000000000000000000 ) ) ;
#525 = ORIENTED_EDGE ( 'NONE', *, *, #124, .F. ) ;
#526 = CIRCLE ( 'NONE', #70, 2.000000000000000444 ) ;
#527 = LINE ( 'NONE', #228, #51 ) ;
#528 = AXIS2_PLACEMENT_3D ( 'NONE', #541, #96, #383 ) ;
#529 = AXIS2_PLACEMENT_3D ( 'NONE', #400, #55, #548 ) ;
#530 = DIRECTION ( 'NONE',  ( 0.000000000000000000, 0.000000000000000000, -1.000000000000000000 ) ) ;
#531 = EDGE_CURVE ( 'NONE', #203, #245, #193, .T. ) ;
#532 = DIRECTION ( 'NONE',  ( -0.000000000000000000, -0.000000000000000000, -1.000000000000000000 ) ) ;
#533 = EDGE_LOOP ( 'NONE', ( #603, #192 ) ) ;
#534 = CARTESIAN_POINT ( 'NONE',  ( -39.13620667976487510, -23.74999999999766587, 1.000000000000000888 ) ) ;
#535 = DIRECTION ( 'NONE',  ( -0.000000000000000000, -0.000000000000000000, -1.000000000000000000 ) ) ;
#536 = ORIENTED_EDGE ( 'NONE', *, *, #205, .T. ) ;
#537 = EDGE_CURVE ( 'NONE', #306, #249, #472, .T. ) ;
#538 = CARTESIAN_POINT ( 'NONE',  ( -41.13620667976487510, -23.74999999999766587, 1.000000000000000888 ) ) ;
#539 = AXIS2_PLACEMENT_3D ( 'NONE', #282, #33, #583 ) ;
#540 = FACE_BOUND ( 'NONE', #232, .T. ) ;
#541 = CARTESIAN_POINT ( 'NONE',  ( 0.000000000000000000, 47.50000000000000711, 1.000000000000000888 ) ) ;
#542 = DIRECTION ( 'NONE',  ( 0.000000000000000000, 0.000000000000000000, -1.000000000000000000 ) ) ;
#543 = AXIS2_PLACEMENT_3D ( 'NONE', #464, #467, #368 ) ;
#544 = EDGE_LOOP ( 'NONE', ( #172, #643 ) ) ;
#545 = ADVANCED_FACE ( 'NONE', ( #31 ), #376, .F. ) ;
#546 = ADVANCED_FACE ( 'NONE', ( #151 ), #53, .F. ) ;
#547 = ORIENTED_EDGE ( 'NONE', *, *, #573, .T. ) ;
#548 = DIRECTION ( 'NONE',  ( -1.000000000000000000, 0.000000000000000000, 0.000000000000000000 ) ) ;
#549 = ORIENTED_EDGE ( 'NONE', *, *, #280, .T. ) ;
#550 = DIRECTION ( 'NONE',  ( 0.000000000000000000, 0.000000000000000000, 1.000000000000000000 ) ) ;
#551 = AXIS2_PLACEMENT_3D ( 'NONE', #576, #419, #457 ) ;
#552 = AXIS2_PLACEMENT_3D ( 'NONE', #450, #604, #261 ) ;
#553 = ORIENTED_EDGE ( 'NONE', *, *, #531, .F. ) ;
#554 = FILL_AREA_STYLE_COLOUR ( '', #104 ) ;
#555 = CIRCLE ( 'NONE', #200, 2.000000000000000444 ) ;
#556 = DIRECTION ( 'NONE',  ( 0.000000000000000000, 0.000000000000000000, 1.000000000000000000 ) ) ;
#557 =( LENGTH_UNIT ( ) NAMED_UNIT ( * ) SI_UNIT ( .MILLI., .METRE. ) );
#558 = EDGE_CURVE ( 'NONE', #456, #150, #259, .T. ) ;
#559 = DIRECTION ( 'NONE',  ( -0.000000000000000000, -0.000000000000000000, -1.000000000000000000 ) ) ;
#560 = ORIENTED_EDGE ( 'NONE', *, *, #417, .F. ) ;
#561 = AXIS2_PLACEMENT_3D ( 'NONE', #252, #606, #305 ) ;
#562 = DIRECTION ( 'NONE',  ( -1.000000000000000000, 0.000000000000000000, 0.000000000000000000 ) ) ;
#563 = DIRECTION ( 'NONE',  ( -0.000000000000000000, -0.000000000000000000, -1.000000000000000000 ) ) ;
#564 = VERTEX_POINT ( 'NONE', #332 ) ;
#565 = PRODUCT_DEFINITION ( 'UNKNOWN', '', #411, #292 ) ;
#566 = CARTESIAN_POINT ( 'NONE',  ( 0.000000000000000000, 47.50000000000000711, 42.00000000000000000 ) ) ;
#567 = VERTEX_POINT ( 'NONE', #588 ) ;
#568 = FACE_OUTER_BOUND ( 'NONE', #146, .T. ) ;
#569 = CARTESIAN_POINT ( 'NONE',  ( -5.382673574888913610E-12, -47.50000000000000000, 0.000000000000000000 ) ) ;
#570 = ORIENTED_EDGE ( 'NONE', *, *, #186, .F. ) ;
#571 = FACE_OUTER_BOUND ( 'NONE', #449, .T. ) ;
#572 = FACE_BOUND ( 'NONE', #437, .T. ) ;
#573 = EDGE_CURVE ( 'NONE', #26, #189, #594, .T. ) ;
#574 = VERTEX_POINT ( 'NONE', #136 ) ;
#575 = DIRECTION ( 'NONE',  ( 1.000000000000000000, 0.000000000000000000, 0.000000000000000000 ) ) ;
#576 = CARTESIAN_POINT ( 'NONE',  ( 0.000000000000000000, 0.000000000000000000, 0.000000000000000000 ) ) ;
#577 = VERTEX_POINT ( 'NONE', #235 ) ;
#578 = EDGE_CURVE ( 'NONE', #511, #469, #333, .T. ) ;
#579 = LINE ( 'NONE', #428, #438 ) ;
#580 = DIRECTION ( 'NONE',  ( 0.000000000000000000, 0.000000000000000000, -1.000000000000000000 ) ) ;
#581 = ORIENTED_EDGE ( 'NONE', *, *, #118, .F. ) ;
#582 = AXIS2_PLACEMENT_3D ( 'NONE', #538, #587, #642 ) ;
#583 = DIRECTION ( 'NONE',  ( 1.000000000000000000, 0.000000000000000000, 0.000000000000000000 ) ) ;
#584 = AXIS2_PLACEMENT_3D ( 'NONE', #354, #608, #402 ) ;
#585 =( NAMED_UNIT ( * ) SI_UNIT ( $, .STERADIAN. ) SOLID_ANGLE_UNIT ( ) );
#586 = ORIENTED_EDGE ( 'NONE', *, *, #50, .T. ) ;
#587 = DIRECTION ( 'NONE',  ( 0.000000000000000000, 0.000000000000000000, 1.000000000000000000 ) ) ;
#588 = CARTESIAN_POINT ( 'NONE',  ( -53.00000000000000711, 0.000000000000000000, 1.000000000000000000 ) ) ;
#589 = ORIENTED_EDGE ( 'NONE', *, *, #379, .F. ) ;
#590 = CARTESIAN_POINT ( 'NONE',  ( -41.13620667976217504, 23.75000000000234124, 42.00000000000000000 ) ) ;
#591 = DIRECTION ( 'NONE',  ( -0.000000000000000000, -0.000000000000000000, -1.000000000000000000 ) ) ;
#592 = ORIENTED_EDGE ( 'NONE', *, *, #357, .T. ) ;
#593 = CARTESIAN_POINT ( 'NONE',  ( 2.000000000000000444, 47.50000000000000711, 1.000000000000000888 ) ) ;
#594 = CIRCLE ( 'NONE', #260, 2.000000000000000444 ) ;
#595 = ORIENTED_EDGE ( 'NONE', *, *, #558, .F. ) ;
#596 = EDGE_CURVE ( 'NONE', #179, #329, #489, .T. ) ;
#597 = EDGE_CURVE ( 'NONE', #577, #329, #148, .T. ) ;
#598 = ORIENTED_EDGE ( 'NONE', *, *, #573, .F. ) ;
#599 = FACE_OUTER_BOUND ( 'NONE', #48, .T. ) ;
#600 = ORIENTED_EDGE ( 'NONE', *, *, #470, .T. ) ;
#601 = SURFACE_STYLE_FILL_AREA ( #109 ) ;
#602 = EDGE_CURVE ( 'NONE', #289, #337, #145, .T. ) ;
#603 = ORIENTED_EDGE ( 'NONE', *, *, #357, .F. ) ;
#604 = DIRECTION ( 'NONE',  ( -0.000000000000000000, -0.000000000000000000, -1.000000000000000000 ) ) ;
#605 = CIRCLE ( 'NONE', #323, 2.000000000000001776 ) ;
#606 = DIRECTION ( 'NONE',  ( -0.000000000000000000, -0.000000000000000000, -1.000000000000000000 ) ) ;
#607 = ORIENTED_EDGE ( 'NONE', *, *, #47, .F. ) ;
#608 = DIRECTION ( 'NONE',  ( -0.000000000000000000, -0.000000000000000000, -1.000000000000000000 ) ) ;
#609 = ORIENTED_EDGE ( 'NONE', *, *, #597, .T. ) ;
#610 = DIRECTION ( 'NONE',  ( 0.000000000000000000, 0.000000000000000000, 1.000000000000000000 ) ) ;
#611 = CARTESIAN_POINT ( 'NONE',  ( 43.13620667975679623, -23.75000000000234834, 0.000000000000000000 ) ) ;
#612 = EDGE_CURVE ( 'NONE', #304, #358, #138, .T. ) ;
#613 = CIRCLE ( 'NONE', #295, 2.000000000000001776 ) ;
#614 = ADVANCED_FACE ( 'NONE', ( #384 ), #87, .F. ) ;
#615 = CARTESIAN_POINT ( 'NONE',  ( -5.382673574888913610E-12, -47.50000000000000000, 1.000000000000000888 ) ) ;
#616 = CARTESIAN_POINT ( 'NONE',  ( 1.999999999994617639, -47.50000000000000000, 42.00000000000000000 ) ) ;
#617 = VERTEX_POINT ( 'NONE', #34 ) ;
#618 = LINE ( 'NONE', #372, #110 ) ;
#619 = CARTESIAN_POINT ( 'NONE',  ( 43.13620667975679623, -23.75000000000234834, 42.00000000000000000 ) ) ;
#620 = EDGE_LOOP ( 'NONE', ( #32, #476 ) ) ;
#621 = ADVANCED_FACE ( 'NONE', ( #240 ), #439, .F. ) ;
#622 = DIRECTION ( 'NONE',  ( -0.000000000000000000, -0.000000000000000000, -1.000000000000000000 ) ) ;
#623 = CARTESIAN_POINT ( 'NONE',  ( -2.000000000000000444, 47.50000000000000711, 0.000000000000000000 ) ) ;
#624 = ORIENTED_EDGE ( 'NONE', *, *, #494, .T. ) ;
#625 = AXIS2_PLACEMENT_3D ( 'NONE', #637, #135, #239 ) ;
#626 = DIRECTION ( 'NONE',  ( -0.000000000000000000, -0.000000000000000000, -1.000000000000000000 ) ) ;
#627 = CARTESIAN_POINT ( 'NONE',  ( 41.13620667975951051, 23.74999999999764100, 1.000000000000000888 ) ) ;
#628 = ORIENTED_EDGE ( 'NONE', *, *, #267, .F. ) ;
#629 = CARTESIAN_POINT ( 'NONE',  ( 0.000000000000000000, 47.50000000000000711, 0.000000000000000000 ) ) ;
#630 = DIRECTION ( 'NONE',  ( -0.000000000000000000, -0.000000000000000000, -1.000000000000000000 ) ) ;
#631 = ORIENTED_EDGE ( 'NONE', *, *, #124, .T. ) ;
#632 = CARTESIAN_POINT ( 'NONE',  ( 41.13620667975951051, 23.74999999999764100, 42.00000000000000000 ) ) ;
#633 =( LENGTH_UNIT ( ) NAMED_UNIT ( * ) SI_UNIT ( .MILLI., .METRE. ) );
#634 = ORIENTED_EDGE ( 'NONE', *, *, #602, .T. ) ;
#635 = EDGE_CURVE ( 'NONE', #483, #179, #526, .T. ) ;
#636 = AXIS2_PLACEMENT_3D ( 'NONE', #485, #42, #86 ) ;
#637 = CARTESIAN_POINT ( 'NONE',  ( 0.000000000000000000, 0.000000000000000000, 1.000000000000000000 ) ) ;
#638 = EDGE_LOOP ( 'NONE', ( #279, #586, #221, #595 ) ) ;
#639 = CIRCLE ( 'NONE', #543, 2.000000000000001776 ) ;
#640 = CARTESIAN_POINT ( 'NONE',  ( -2.000000000000000444, 47.50000000000000711, 42.00000000000000000 ) ) ;
#641 = EDGE_LOOP ( 'NONE', ( #423, #54, #634, #300 ) ) ;
#642 = DIRECTION ( 'NONE',  ( 1.000000000000000000, 0.000000000000000000, 0.000000000000000000 ) ) ;
#643 = ORIENTED_EDGE ( 'NONE', *, *, #132, .F. ) ;
ENDSEC;
END-ISO-10303-21;
