ISO-10303-21;
HEADER;
FILE_DESCRIPTION (( 'STEP AP214' ),
    '1' );
FILE_NAME ('schutz.STEP',
    '2026-03-11T08:22:26',
    ( '' ),
    ( '' ),
    'SwSTEP 2.0',
    'SolidWorks 2023',
    '' );
FILE_SCHEMA (( 'AUTOMOTIVE_DESIGN' ));
ENDSEC;

DATA;
#1 = DIRECTION ( 'NONE',  ( -1.000000000000000000, 0.000000000000000000, 0.000000000000000000 ) ) ;
#2 = CIRCLE ( 'NONE', #174, 40.00000000000000000 ) ;
#3 = CARTESIAN_POINT ( 'NONE',  ( 0.000000000000000000, 0.000000000000000000, 0.000000000000000000 ) ) ;
#4 = CARTESIAN_POINT ( 'NONE',  ( 0.000000000000000000, 0.000000000000000000, 15.00000000000000000 ) ) ;
#5 = CARTESIAN_POINT ( 'NONE',  ( 28.99999999999999289, 0.000000000000000000, 52.50000000000000000 ) ) ;
#6 = CARTESIAN_POINT ( 'NONE',  ( 0.000000000000000000, 0.000000000000000000, 15.00000000000000000 ) ) ;
#7 = ORIENTED_EDGE ( 'NONE', *, *, #128, .T. ) ;
#8 = LINE ( 'NONE', #69, #114 ) ;
#9 = ORIENTED_EDGE ( 'NONE', *, *, #100, .F. ) ;
#10 = DIRECTION ( 'NONE',  ( -0.000000000000000000, -0.000000000000000000, -1.000000000000000000 ) ) ;
#11 = PRESENTATION_LAYER_ASSIGNMENT (  '', '', ( #300 ) ) ;
#12 = FACE_OUTER_BOUND ( 'NONE', #36, .T. ) ;
#13 = EDGE_CURVE ( 'NONE', #168, #126, #153, .T. ) ;
#14 = VERTEX_POINT ( 'NONE', #15 ) ;
#15 = CARTESIAN_POINT ( 'NONE',  ( 66.49999999999998579, 8.143901214329898396E-15, 15.00000000000000000 ) ) ;
#16 = TOROIDAL_SURFACE ( 'NONE', #161, 28.99999999999998934, 40.00000000000000000 ) ;
#17 = DIRECTION ( 'NONE',  ( 0.000000000000000000, 0.000000000000000000, -1.000000000000000000 ) ) ;
#18 = DIRECTION ( 'NONE',  ( 0.000000000000000000, 0.000000000000000000, 1.000000000000000000 ) ) ;
#19 = ADVANCED_FACE ( 'NONE', ( #180 ), #67, .T. ) ;
#20 = CIRCLE ( 'NONE', #222, 66.49999999999998579 ) ;
#21 = CARTESIAN_POINT ( 'NONE',  ( 68.99999999999998579, 8.450062914116734689E-15, 15.00000000000000000 ) ) ;
#22 = ORIENTED_EDGE ( 'NONE', *, *, #210, .T. ) ;
#23 = FACE_OUTER_BOUND ( 'NONE', #88, .T. ) ;
#24 = DIRECTION ( 'NONE',  ( 0.000000000000000000, 0.000000000000000000, 1.000000000000000000 ) ) ;
#25 = CARTESIAN_POINT ( 'NONE',  ( 0.000000000000000000, 0.000000000000000000, 10.00000000000000000 ) ) ;
#26 = ORIENTED_EDGE ( 'NONE', *, *, #100, .T. ) ;
#27 = FACE_OUTER_BOUND ( 'NONE', #220, .T. ) ;
#28 = DIRECTION ( 'NONE',  ( 1.000000000000000000, 0.000000000000000000, -0.000000000000000000 ) ) ;
#29 = VERTEX_POINT ( 'NONE', #123 ) ;
#30 = CARTESIAN_POINT ( 'NONE',  ( -68.99999999999998579, 0.000000000000000000, 15.00000000000000000 ) ) ;
#31 = ORIENTED_EDGE ( 'NONE', *, *, #72, .T. ) ;
#32 = DIRECTION ( 'NONE',  ( 0.000000000000000000, 0.000000000000000000, 1.000000000000000000 ) ) ;
#33 = VERTEX_POINT ( 'NONE', #49 ) ;
#34 = DIRECTION ( 'NONE',  ( -0.000000000000000000, -0.000000000000000000, -1.000000000000000000 ) ) ;
#35 = UNCERTAINTY_MEASURE_WITH_UNIT (LENGTH_MEASURE( 1.000000000000000082E-05 ), #208, 'distance_accuracy_value', 'NONE');
#36 = EDGE_LOOP ( 'NONE', ( #110, #111, #136, #224 ) ) ;
#37 = DIRECTION ( 'NONE',  ( 1.000000000000000000, 0.000000000000000000, 0.000000000000000000 ) ) ;
#38 = ORIENTED_EDGE ( 'NONE', *, *, #205, .T. ) ;
#39 = AXIS2_PLACEMENT_3D ( 'NONE', #6, #84, #135 ) ;
#40 = EDGE_LOOP ( 'NONE', ( #191, #226 ) ) ;
#41 = EDGE_CURVE ( 'NONE', #14, #266, #152, .T. ) ;
#42 = AXIS2_PLACEMENT_3D ( 'NONE', #146, #167, #216 ) ;
#43 = PLANE ( 'NONE',  #61 ) ;
#44 = CARTESIAN_POINT ( 'NONE',  ( 0.000000000000000000, 0.000000000000000000, 15.00000000000000000 ) ) ;
#45 = DIRECTION ( 'NONE',  ( 1.000000000000000000, 0.000000000000000000, 0.000000000000000000 ) ) ;
#46 = PRESENTATION_STYLE_ASSIGNMENT (( #119 ) ) ;
#47 = DIRECTION ( 'NONE',  ( 0.000000000000000000, 0.000000000000000000, 1.000000000000000000 ) ) ;
#48 = DIRECTION ( 'NONE',  ( 1.000000000000000000, 0.000000000000000000, 0.000000000000000000 ) ) ;
#49 = CARTESIAN_POINT ( 'NONE',  ( -28.99999999999998934, 6.000769315822030148E-15, 55.00000000000000000 ) ) ;
#50 = DIRECTION ( 'NONE',  ( 1.224646799147353207E-16, 1.000000000000000000, -0.000000000000000000 ) ) ;
#51 = ADVANCED_FACE ( 'NONE', ( #125 ), #16, .T. ) ;
#52 = AXIS2_PLACEMENT_3D ( 'NONE', #234, #18, #45 ) ;
#53 = DIRECTION ( 'NONE',  ( 1.000000000000000000, 0.000000000000000000, 0.000000000000000000 ) ) ;
#54 = VERTEX_POINT ( 'NONE', #5 ) ;
#55 =( GEOMETRIC_REPRESENTATION_CONTEXT ( 3 ) GLOBAL_UNCERTAINTY_ASSIGNED_CONTEXT ( ( #35 ) ) GLOBAL_UNIT_ASSIGNED_CONTEXT ( ( #208, #301, #249 ) ) REPRESENTATION_CONTEXT ( 'NONE', 'WORKASPACE' ) );
#56 = CARTESIAN_POINT ( 'NONE',  ( 0.000000000000000000, 0.000000000000000000, 10.00000000000000000 ) ) ;
#57 = AXIS2_PLACEMENT_3D ( 'NONE', #120, #47, #28 ) ;
#58 = DIRECTION ( 'NONE',  ( 0.000000000000000000, -1.000000000000000000, 0.000000000000000000 ) ) ;
#59 = DIRECTION ( 'NONE',  ( 0.000000000000000000, 0.000000000000000000, 1.000000000000000000 ) ) ;
#60 = ORIENTED_EDGE ( 'NONE', *, *, #236, .T. ) ;
#61 = AXIS2_PLACEMENT_3D ( 'NONE', #108, #59, #90 ) ;
#62 = ADVANCED_FACE ( 'NONE', ( #289 ), #98, .T. ) ;
#63 = ORIENTED_EDGE ( 'NONE', *, *, #141, .T. ) ;
#64 = AXIS2_PLACEMENT_3D ( 'NONE', #163, #199, #85 ) ;
#65 = ORIENTED_EDGE ( 'NONE', *, *, #253, .F. ) ;
#66 = VECTOR ( 'NONE', #187, 1000.000000000000000 ) ;
#67 = CYLINDRICAL_SURFACE ( 'NONE', #116, 68.99999999999998579 ) ;
#68 = AXIS2_PLACEMENT_3D ( 'NONE', #223, #10, #1 ) ;
#69 = CARTESIAN_POINT ( 'NONE',  ( -66.49999999999998579, 0.000000000000000000, 10.00000000000000000 ) ) ;
#70 = COLOUR_RGB ( '',0.7921568627450980005, 0.8196078431372548767, 0.9333333333333333481 ) ;
#71 = CIRCLE ( 'NONE', #107, 37.50000000000000000 ) ;
#72 = EDGE_CURVE ( 'NONE', #29, #266, #20, .T. ) ;
#73 = CIRCLE ( 'NONE', #239, 68.99999999999998579 ) ;
#74 = APPLICATION_PROTOCOL_DEFINITION ( 'draft international standard', 'automotive_design', 1998, #192 ) ;
#75 = DIRECTION ( 'NONE',  ( -0.000000000000000000, -0.000000000000000000, -1.000000000000000000 ) ) ;
#76 = ORIENTED_EDGE ( 'NONE', *, *, #286, .T. ) ;
#77 = EDGE_CURVE ( 'NONE', #168, #295, #93, .T. ) ;
#78 = PLANE ( 'NONE',  #42 ) ;
#79 = EDGE_LOOP ( 'NONE', ( #215, #76, #166, #38 ) ) ;
#80 = AXIS2_PLACEMENT_3D ( 'NONE', #87, #130, #37 ) ;
#81 = DIRECTION ( 'NONE',  ( -1.000000000000000000, 0.000000000000000000, 0.000000000000000000 ) ) ;
#82 = CARTESIAN_POINT ( 'NONE',  ( 68.99999999999998579, 8.450062914116734689E-15, 10.00000000000000000 ) ) ;
#83 = DIRECTION ( 'NONE',  ( 1.000000000000000000, 0.000000000000000000, 0.000000000000000000 ) ) ;
#84 = DIRECTION ( 'NONE',  ( -0.000000000000000000, -0.000000000000000000, -1.000000000000000000 ) ) ;
#85 = DIRECTION ( 'NONE',  ( 1.000000000000000000, 0.000000000000000000, 0.000000000000000000 ) ) ;
#86 = AXIS2_PLACEMENT_3D ( 'NONE', #201, #230, #279 ) ;
#87 = CARTESIAN_POINT ( 'NONE',  ( 0.000000000000000000, 0.000000000000000000, 52.50000000000000000 ) ) ;
#88 = EDGE_LOOP ( 'NONE', ( #89, #245, #293, #248 ) ) ;
#89 = ORIENTED_EDGE ( 'NONE', *, *, #145, .F. ) ;
#90 = DIRECTION ( 'NONE',  ( 1.000000000000000000, 0.000000000000000000, -0.000000000000000000 ) ) ;
#91 = DIRECTION ( 'NONE',  ( 1.000000000000000000, 0.000000000000000000, 0.000000000000000000 ) ) ;
#92 = ADVANCED_FACE ( 'NONE', ( #23 ), #213, .F. ) ;
#93 = LINE ( 'NONE', #270, #66 ) ;
#94 = VERTEX_POINT ( 'NONE', #242 ) ;
#95 = CIRCLE ( 'NONE', #196, 68.99999999999998579 ) ;
#96 = DIRECTION ( 'NONE',  ( 1.000000000000000000, 0.000000000000000000, 0.000000000000000000 ) ) ;
#97 = DIRECTION ( 'NONE',  ( 0.000000000000000000, -1.000000000000000000, 0.000000000000000000 ) ) ;
#98 = PLANE ( 'NONE',  #57 ) ;
#99 = VECTOR ( 'NONE', #302, 1000.000000000000000 ) ;
#100 = EDGE_CURVE ( 'NONE', #168, #33, #103, .T. ) ;
#101 = CARTESIAN_POINT ( 'NONE',  ( 66.49999999999998579, 8.143901214329898396E-15, 10.00000000000000000 ) ) ;
#102 = ORIENTED_EDGE ( 'NONE', *, *, #141, .F. ) ;
#103 = CIRCLE ( 'NONE', #232, 40.00000000000000000 ) ;
#104 = FACE_BOUND ( 'NONE', #297, .T. ) ;
#105 = CARTESIAN_POINT ( 'NONE',  ( 0.000000000000000000, 0.000000000000000000, 55.00000000000000000 ) ) ;
#106 = EDGE_CURVE ( 'NONE', #94, #295, #95, .T. ) ;
#107 = AXIS2_PLACEMENT_3D ( 'NONE', #195, #58, #17 ) ;
#108 = CARTESIAN_POINT ( 'NONE',  ( 0.000000000000000000, 0.000000000000000000, 0.000000000000000000 ) ) ;
#109 = DIRECTION ( 'NONE',  ( -1.000000000000000000, 0.000000000000000000, 0.000000000000000000 ) ) ;
#110 = ORIENTED_EDGE ( 'NONE', *, *, #13, .T. ) ;
#111 = ORIENTED_EDGE ( 'NONE', *, *, #240, .T. ) ;
#112 = ORIENTED_EDGE ( 'NONE', *, *, #182, .F. ) ;
#113 = PRODUCT ( 'schutz', 'schutz', '', ( #185 ) ) ;
#114 = VECTOR ( 'NONE', #34, 1000.000000000000000 ) ;
#115 = FACE_OUTER_BOUND ( 'NONE', #79, .T. ) ;
#116 = AXIS2_PLACEMENT_3D ( 'NONE', #25, #75, #265 ) ;
#117 = ADVANCED_FACE ( 'NONE', ( #291 ), #78, .F. ) ;
#118 = DIRECTION ( 'NONE',  ( -1.000000000000000000, 1.224646799147353207E-16, 0.000000000000000000 ) ) ;
#119 = SURFACE_STYLE_USAGE ( .BOTH. , #246 ) ;
#120 = CARTESIAN_POINT ( 'NONE',  ( 0.000000000000000000, 0.000000000000000000, 55.00000000000000000 ) ) ;
#121 = TOROIDAL_SURFACE ( 'NONE', #149, 28.99999999999998934, 37.50000000000000000 ) ;
#122 = CARTESIAN_POINT ( 'NONE',  ( 0.000000000000000000, 0.000000000000000000, 10.00000000000000000 ) ) ;
#123 = CARTESIAN_POINT ( 'NONE',  ( -66.49999999999998579, 0.000000000000000000, 0.000000000000000000 ) ) ;
#124 = DIRECTION ( 'NONE',  ( 1.000000000000000000, 0.000000000000000000, 0.000000000000000000 ) ) ;
#125 = FACE_OUTER_BOUND ( 'NONE', #307, .T. ) ;
#126 = VERTEX_POINT ( 'NONE', #21 ) ;
#127 = AXIS2_PLACEMENT_3D ( 'NONE', #140, #233, #53 ) ;
#128 = EDGE_CURVE ( 'NONE', #254, #200, #257, .T. ) ;
#129 = FILL_AREA_STYLE ('',( #190 ) ) ;
#130 = DIRECTION ( 'NONE',  ( 0.000000000000000000, 0.000000000000000000, 1.000000000000000000 ) ) ;
#131 = ORIENTED_EDGE ( 'NONE', *, *, #145, .T. ) ;
#132 = ORIENTED_EDGE ( 'NONE', *, *, #177, .F. ) ;
#133 = CYLINDRICAL_SURFACE ( 'NONE', #68, 66.49999999999998579 ) ;
#134 = PRODUCT_RELATED_PRODUCT_CATEGORY ( 'part', '', ( #113 ) ) ;
#135 = DIRECTION ( 'NONE',  ( -1.000000000000000000, 0.000000000000000000, 0.000000000000000000 ) ) ;
#136 = ORIENTED_EDGE ( 'NONE', *, *, #106, .T. ) ;
#137 = EDGE_LOOP ( 'NONE', ( #247, #229 ) ) ;
#138 = ADVANCED_FACE ( 'NONE', ( #27 ), #121, .F. ) ;
#139 = CARTESIAN_POINT ( 'NONE',  ( 0.000000000000000000, 0.000000000000000000, 55.00000000000000000 ) ) ;
#140 = CARTESIAN_POINT ( 'NONE',  ( 0.000000000000000000, 0.000000000000000000, 15.00000000000000000 ) ) ;
#141 = EDGE_CURVE ( 'NONE', #126, #194, #2, .T. ) ;
#142 =( LENGTH_UNIT ( ) NAMED_UNIT ( * ) SI_UNIT ( .MILLI., .METRE. ) );
#143 = MANIFOLD_SOLID_BREP ( 'Wandung2', #211 ) ;
#144 = CARTESIAN_POINT ( 'NONE',  ( -68.99999999999998579, 0.000000000000000000, 0.000000000000000000 ) ) ;
#145 = EDGE_CURVE ( 'NONE', #14, #254, #231, .T. ) ;
#146 = CARTESIAN_POINT ( 'NONE',  ( 0.000000000000000000, 0.000000000000000000, 52.50000000000000000 ) ) ;
#147 = DIRECTION ( 'NONE',  ( -0.000000000000000000, -0.000000000000000000, -1.000000000000000000 ) ) ;
#148 = ORIENTED_EDGE ( 'NONE', *, *, #177, .T. ) ;
#149 = AXIS2_PLACEMENT_3D ( 'NONE', #4, #24, #124 ) ;
#150 = CIRCLE ( 'NONE', #309, 66.49999999999998579 ) ;
#151 = CARTESIAN_POINT ( 'NONE',  ( -28.99999999999998934, 3.551475717527323241E-15, 15.00000000000000000 ) ) ;
#152 = LINE ( 'NONE', #101, #206 ) ;
#153 = CIRCLE ( 'NONE', #86, 68.99999999999998579 ) ;
#154 = DIRECTION ( 'NONE',  ( 1.224646799147353207E-16, 1.000000000000000000, -0.000000000000000000 ) ) ;
#155 = FACE_OUTER_BOUND ( 'NONE', #264, .T. ) ;
#156 = EDGE_LOOP ( 'NONE', ( #169, #274, #277, #148 ) ) ;
#157 = CARTESIAN_POINT ( 'NONE',  ( 66.49999999999998579, 8.143901214329898396E-15, 0.000000000000000000 ) ) ;
#158 = DIRECTION ( 'NONE',  ( 1.000000000000000000, 0.000000000000000000, 0.000000000000000000 ) ) ;
#159 = ORIENTED_EDGE ( 'NONE', *, *, #286, .F. ) ;
#160 = CIRCLE ( 'NONE', #64, 28.99999999999999289 ) ;
#161 = AXIS2_PLACEMENT_3D ( 'NONE', #214, #217, #96 ) ;
#162 = EDGE_LOOP ( 'NONE', ( #9, #188, #63, #65 ) ) ;
#163 = CARTESIAN_POINT ( 'NONE',  ( 0.000000000000000000, 0.000000000000000000, 52.50000000000000000 ) ) ;
#164 = AXIS2_PLACEMENT_3D ( 'NONE', #183, #193, #296 ) ;
#165 = DIRECTION ( 'NONE',  ( 0.000000000000000000, 0.000000000000000000, -1.000000000000000000 ) ) ;
#166 = ORIENTED_EDGE ( 'NONE', *, *, #182, .T. ) ;
#167 = DIRECTION ( 'NONE',  ( 0.000000000000000000, 0.000000000000000000, 1.000000000000000000 ) ) ;
#168 = VERTEX_POINT ( 'NONE', #30 ) ;
#169 = ORIENTED_EDGE ( 'NONE', *, *, #240, .F. ) ;
#170 = FACE_OUTER_BOUND ( 'NONE', #162, .T. ) ;
#171 = ORIENTED_EDGE ( 'NONE', *, *, #106, .F. ) ;
#172 = DIRECTION ( 'NONE',  ( 0.000000000000000000, 0.000000000000000000, 1.000000000000000000 ) ) ;
#173 = APPLICATION_CONTEXT ( 'automotive_design' ) ;
#174 = AXIS2_PLACEMENT_3D ( 'NONE', #288, #97, #165 ) ;
#175 = CARTESIAN_POINT ( 'NONE',  ( 0.000000000000000000, 0.000000000000000000, 0.000000000000000000 ) ) ;
#176 = ORIENTED_EDGE ( 'NONE', *, *, #202, .T. ) ;
#177 = EDGE_CURVE ( 'NONE', #295, #94, #197, .T. ) ;
#178 = AXIS2_PLACEMENT_3D ( 'NONE', #139, #32, #158 ) ;
#179 = ORIENTED_EDGE ( 'NONE', *, *, #184, .F. ) ;
#180 = FACE_OUTER_BOUND ( 'NONE', #156, .T. ) ;
#181 = PRODUCT_DEFINITION_FORMATION_WITH_SPECIFIED_SOURCE ( 'ANY', '', #113, .NOT_KNOWN. ) ;
#182 = EDGE_CURVE ( 'NONE', #14, #54, #71, .T. ) ;
#183 = CARTESIAN_POINT ( 'NONE',  ( 0.000000000000000000, 0.000000000000000000, 15.00000000000000000 ) ) ;
#184 = EDGE_CURVE ( 'NONE', #194, #33, #244, .T. ) ;
#185 = PRODUCT_CONTEXT ( 'NONE', #173, 'mechanical' ) ;
#186 = DIRECTION ( 'NONE',  ( 0.000000000000000000, 0.000000000000000000, 1.000000000000000000 ) ) ;
#187 = DIRECTION ( 'NONE',  ( -0.000000000000000000, -0.000000000000000000, -1.000000000000000000 ) ) ;
#188 = ORIENTED_EDGE ( 'NONE', *, *, #303, .F. ) ;
#189 = DIRECTION ( 'NONE',  ( 0.000000000000000000, 0.000000000000000000, 1.000000000000000000 ) ) ;
#190 = FILL_AREA_STYLE_COLOUR ( '', #70 ) ;
#191 = ORIENTED_EDGE ( 'NONE', *, *, #205, .F. ) ;
#192 = APPLICATION_CONTEXT ( 'automotive_design' ) ;
#193 = DIRECTION ( 'NONE',  ( -0.000000000000000000, -0.000000000000000000, -1.000000000000000000 ) ) ;
#194 = VERTEX_POINT ( 'NONE', #273 ) ;
#195 = CARTESIAN_POINT ( 'NONE',  ( 28.99999999999998934, 0.000000000000000000, 15.00000000000000000 ) ) ;
#196 = AXIS2_PLACEMENT_3D ( 'NONE', #3, #189, #48 ) ;
#197 = CIRCLE ( 'NONE', #203, 68.99999999999998579 ) ;
#198 = CARTESIAN_POINT ( 'NONE',  ( 0.000000000000000000, 0.000000000000000000, 0.000000000000000000 ) ) ;
#199 = DIRECTION ( 'NONE',  ( 0.000000000000000000, 0.000000000000000000, 1.000000000000000000 ) ) ;
#200 = VERTEX_POINT ( 'NONE', #271 ) ;
#201 = CARTESIAN_POINT ( 'NONE',  ( 0.000000000000000000, 0.000000000000000000, 15.00000000000000000 ) ) ;
#202 = EDGE_CURVE ( 'NONE', #266, #29, #150, .T. ) ;
#203 = AXIS2_PLACEMENT_3D ( 'NONE', #198, #172, #218 ) ;
#204 = APPLICATION_PROTOCOL_DEFINITION ( 'draft international standard', 'automotive_design', 1998, #173 ) ;
#205 = EDGE_CURVE ( 'NONE', #54, #200, #227, .T. ) ;
#206 = VECTOR ( 'NONE', #147, 1000.000000000000000 ) ;
#207 =( NAMED_UNIT ( * ) SI_UNIT ( $, .STERADIAN. ) SOLID_ANGLE_UNIT ( ) );
#208 =( LENGTH_UNIT ( ) NAMED_UNIT ( * ) SI_UNIT ( .MILLI., .METRE. ) );
#209 = CARTESIAN_POINT ( 'NONE',  ( 0.000000000000000000, 0.000000000000000000, 0.000000000000000000 ) ) ;
#210 = EDGE_CURVE ( 'NONE', #254, #29, #8, .T. ) ;
#211 = CLOSED_SHELL ( 'NONE', ( #138, #51, #92, #256, #267, #19, #292, #62, #275, #117, #305 ) ) ;
#212 = DIRECTION ( 'NONE',  ( -1.000000000000000000, 1.224646799147353454E-16, 0.000000000000000000 ) ) ;
#213 = CYLINDRICAL_SURFACE ( 'NONE', #278, 66.49999999999998579 ) ;
#214 = CARTESIAN_POINT ( 'NONE',  ( 0.000000000000000000, 0.000000000000000000, 15.00000000000000000 ) ) ;
#215 = ORIENTED_EDGE ( 'NONE', *, *, #128, .F. ) ;
#216 = DIRECTION ( 'NONE',  ( 1.000000000000000000, 0.000000000000000000, -0.000000000000000000 ) ) ;
#217 = DIRECTION ( 'NONE',  ( 0.000000000000000000, 0.000000000000000000, 1.000000000000000000 ) ) ;
#218 = DIRECTION ( 'NONE',  ( 1.000000000000000000, 0.000000000000000000, 0.000000000000000000 ) ) ;
#219 = UNCERTAINTY_MEASURE_WITH_UNIT (LENGTH_MEASURE( 1.000000000000000082E-05 ), #142, 'distance_accuracy_value', 'NONE');
#220 = EDGE_LOOP ( 'NONE', ( #131, #7, #60, #112 ) ) ;
#221 = EDGE_LOOP ( 'NONE', ( #132, #171 ) ) ;
#222 = AXIS2_PLACEMENT_3D ( 'NONE', #209, #263, #83 ) ;
#223 = CARTESIAN_POINT ( 'NONE',  ( 0.000000000000000000, 0.000000000000000000, 10.00000000000000000 ) ) ;
#224 = ORIENTED_EDGE ( 'NONE', *, *, #77, .F. ) ;
#225 = CYLINDRICAL_SURFACE ( 'NONE', #235, 68.99999999999998579 ) ;
#226 = ORIENTED_EDGE ( 'NONE', *, *, #236, .F. ) ;
#227 = CIRCLE ( 'NONE', #80, 28.99999999999999289 ) ;
#228 = DIRECTION ( 'NONE',  ( 0.000000000000000000, 0.000000000000000000, 1.000000000000000000 ) ) ;
#229 = ORIENTED_EDGE ( 'NONE', *, *, #253, .T. ) ;
#230 = DIRECTION ( 'NONE',  ( -0.000000000000000000, -0.000000000000000000, -1.000000000000000000 ) ) ;
#231 = CIRCLE ( 'NONE', #39, 66.49999999999998579 ) ;
#232 = AXIS2_PLACEMENT_3D ( 'NONE', #260, #50, #212 ) ;
#233 = DIRECTION ( 'NONE',  ( 0.000000000000000000, 0.000000000000000000, 1.000000000000000000 ) ) ;
#234 = CARTESIAN_POINT ( 'NONE',  ( 0.000000000000000000, 0.000000000000000000, 0.000000000000000000 ) ) ;
#235 = AXIS2_PLACEMENT_3D ( 'NONE', #56, #272, #109 ) ;
#236 = EDGE_CURVE ( 'NONE', #200, #54, #160, .T. ) ;
#237 = DIRECTION ( 'NONE',  ( -0.000000000000000000, -0.000000000000000000, -1.000000000000000000 ) ) ;
#238 = DIRECTION ( 'NONE',  ( -0.000000000000000000, -0.000000000000000000, -1.000000000000000000 ) ) ;
#239 = AXIS2_PLACEMENT_3D ( 'NONE', #258, #237, #91 ) ;
#240 = EDGE_CURVE ( 'NONE', #126, #94, #250, .T. ) ;
#241 = ADVANCED_BREP_SHAPE_REPRESENTATION ( 'schutz', ( #143, #52 ), #280 ) ;
#242 = CARTESIAN_POINT ( 'NONE',  ( 68.99999999999998579, 8.450062914116734689E-15, 0.000000000000000000 ) ) ;
#243 = MECHANICAL_DESIGN_GEOMETRIC_PRESENTATION_REPRESENTATION (  '', ( #300 ), #55 ) ;
#244 = CIRCLE ( 'NONE', #284, 28.99999999999998934 ) ;
#245 = ORIENTED_EDGE ( 'NONE', *, *, #41, .T. ) ;
#246 = SURFACE_SIDE_STYLE ('',( #262 ) ) ;
#247 = ORIENTED_EDGE ( 'NONE', *, *, #184, .T. ) ;
#248 = ORIENTED_EDGE ( 'NONE', *, *, #210, .F. ) ;
#249 =( NAMED_UNIT ( * ) SI_UNIT ( $, .STERADIAN. ) SOLID_ANGLE_UNIT ( ) );
#250 = LINE ( 'NONE', #82, #99 ) ;
#251 = ORIENTED_EDGE ( 'NONE', *, *, #41, .F. ) ;
#252 = FACE_OUTER_BOUND ( 'NONE', #221, .T. ) ;
#253 = EDGE_CURVE ( 'NONE', #33, #194, #276, .T. ) ;
#254 = VERTEX_POINT ( 'NONE', #268 ) ;
#255 = ORIENTED_EDGE ( 'NONE', *, *, #13, .F. ) ;
#256 = ADVANCED_FACE ( 'NONE', ( #12 ), #225, .T. ) ;
#257 = CIRCLE ( 'NONE', #283, 37.50000000000000000 ) ;
#258 = CARTESIAN_POINT ( 'NONE',  ( 0.000000000000000000, 0.000000000000000000, 15.00000000000000000 ) ) ;
#259 = DIRECTION ( 'NONE',  ( 1.000000000000000000, 0.000000000000000000, 0.000000000000000000 ) ) ;
#260 = CARTESIAN_POINT ( 'NONE',  ( -28.99999999999998934, 3.551475717527323241E-15, 15.00000000000000000 ) ) ;
#261 =( NAMED_UNIT ( * ) PLANE_ANGLE_UNIT ( ) SI_UNIT ( $, .RADIAN. ) );
#262 = SURFACE_STYLE_FILL_AREA ( #129 ) ;
#263 = DIRECTION ( 'NONE',  ( 0.000000000000000000, 0.000000000000000000, 1.000000000000000000 ) ) ;
#264 = EDGE_LOOP ( 'NONE', ( #251, #159, #22, #290 ) ) ;
#265 = DIRECTION ( 'NONE',  ( -1.000000000000000000, 0.000000000000000000, 0.000000000000000000 ) ) ;
#266 = VERTEX_POINT ( 'NONE', #157 ) ;
#267 = ADVANCED_FACE ( 'NONE', ( #252, #104 ), #43, .F. ) ;
#268 = CARTESIAN_POINT ( 'NONE',  ( -66.49999999999998579, 0.000000000000000000, 15.00000000000000000 ) ) ;
#269 = PRODUCT_DEFINITION_CONTEXT ( 'detailed design', #192, 'design' ) ;
#270 = CARTESIAN_POINT ( 'NONE',  ( -68.99999999999998579, 0.000000000000000000, 10.00000000000000000 ) ) ;
#271 = CARTESIAN_POINT ( 'NONE',  ( -28.99999999999999289, 5.847688465928611213E-15, 52.50000000000000000 ) ) ;
#272 = DIRECTION ( 'NONE',  ( -0.000000000000000000, -0.000000000000000000, -1.000000000000000000 ) ) ;
#273 = CARTESIAN_POINT ( 'NONE',  ( 28.99999999999998934, 0.000000000000000000, 55.00000000000000000 ) ) ;
#274 = ORIENTED_EDGE ( 'NONE', *, *, #303, .T. ) ;
#275 = ADVANCED_FACE ( 'NONE', ( #170 ), #308, .T. ) ;
#276 = CIRCLE ( 'NONE', #178, 28.99999999999998934 ) ;
#277 = ORIENTED_EDGE ( 'NONE', *, *, #77, .T. ) ;
#278 = AXIS2_PLACEMENT_3D ( 'NONE', #122, #238, #81 ) ;
#279 = DIRECTION ( 'NONE',  ( 1.000000000000000000, 0.000000000000000000, 0.000000000000000000 ) ) ;
#280 =( GEOMETRIC_REPRESENTATION_CONTEXT ( 3 ) GLOBAL_UNCERTAINTY_ASSIGNED_CONTEXT ( ( #219 ) ) GLOBAL_UNIT_ASSIGNED_CONTEXT ( ( #142, #261, #207 ) ) REPRESENTATION_CONTEXT ( 'NONE', 'WORKASPACE' ) );
#281 = AXIS2_PLACEMENT_3D ( 'NONE', #44, #186, #259 ) ;
#282 = DIRECTION ( 'NONE',  ( 1.000000000000000000, 0.000000000000000000, 0.000000000000000000 ) ) ;
#283 = AXIS2_PLACEMENT_3D ( 'NONE', #151, #154, #118 ) ;
#284 = AXIS2_PLACEMENT_3D ( 'NONE', #105, #228, #299 ) ;
#285 = TOROIDAL_SURFACE ( 'NONE', #281, 28.99999999999998934, 37.50000000000000000 ) ;
#286 = EDGE_CURVE ( 'NONE', #254, #14, #304, .T. ) ;
#287 = SHAPE_DEFINITION_REPRESENTATION ( #306, #241 ) ;
#288 = CARTESIAN_POINT ( 'NONE',  ( 28.99999999999998934, 0.000000000000000000, 15.00000000000000000 ) ) ;
#289 = FACE_OUTER_BOUND ( 'NONE', #137, .T. ) ;
#290 = ORIENTED_EDGE ( 'NONE', *, *, #202, .F. ) ;
#291 = FACE_OUTER_BOUND ( 'NONE', #40, .T. ) ;
#292 = ADVANCED_FACE ( 'NONE', ( #155 ), #133, .F. ) ;
#293 = ORIENTED_EDGE ( 'NONE', *, *, #72, .F. ) ;
#294 = DIRECTION ( 'NONE',  ( 0.000000000000000000, 0.000000000000000000, 1.000000000000000000 ) ) ;
#295 = VERTEX_POINT ( 'NONE', #144 ) ;
#296 = DIRECTION ( 'NONE',  ( -1.000000000000000000, 0.000000000000000000, 0.000000000000000000 ) ) ;
#297 = EDGE_LOOP ( 'NONE', ( #31, #176 ) ) ;
#298 = PRODUCT_DEFINITION ( 'UNKNOWN', '', #181, #269 ) ;
#299 = DIRECTION ( 'NONE',  ( 1.000000000000000000, 0.000000000000000000, 0.000000000000000000 ) ) ;
#300 = STYLED_ITEM ( 'NONE', ( #46 ), #143 ) ;
#301 =( NAMED_UNIT ( * ) PLANE_ANGLE_UNIT ( ) SI_UNIT ( $, .RADIAN. ) );
#302 = DIRECTION ( 'NONE',  ( -0.000000000000000000, -0.000000000000000000, -1.000000000000000000 ) ) ;
#303 = EDGE_CURVE ( 'NONE', #126, #168, #73, .T. ) ;
#304 = CIRCLE ( 'NONE', #164, 66.49999999999998579 ) ;
#305 = ADVANCED_FACE ( 'NONE', ( #115 ), #285, .F. ) ;
#306 = PRODUCT_DEFINITION_SHAPE ( 'NONE', 'NONE',  #298 ) ;
#307 = EDGE_LOOP ( 'NONE', ( #255, #26, #179, #102 ) ) ;
#308 = TOROIDAL_SURFACE ( 'NONE', #127, 28.99999999999998934, 40.00000000000000000 ) ;
#309 = AXIS2_PLACEMENT_3D ( 'NONE', #175, #294, #282 ) ;
ENDSEC;
END-ISO-10303-21;
