ISO-10303-21;
HEADER;
FILE_DESCRIPTION (( 'STEP AP214' ),
    '1' );
FILE_NAME ('akku_halter3.STEP',
    '2026-03-11T08:37:19',
    ( '' ),
    ( '' ),
    'SwSTEP 2.0',
    'SolidWorks 2023',
    '' );
FILE_SCHEMA (( 'AUTOMOTIVE_DESIGN' ));
ENDSEC;

DATA;
#1 = CARTESIAN_POINT ( 'NONE',  ( -41.69999999999999574, 31.41667046819349807, 0.0009999999999992653654 ) ) ;
#2 = EDGE_CURVE ( 'NONE', #127, #383, #377, .T. ) ;
#3 = FACE_BOUND ( 'NONE', #23, .T. ) ;
#4 = VERTEX_POINT ( 'NONE', #369 ) ;
#5 = FACE_BOUND ( 'NONE', #295, .T. ) ;
#6 = ORIENTED_EDGE ( 'NONE', *, *, #32, .T. ) ;
#7 = DIRECTION ( 'NONE',  ( 0.000000000000000000, 0.000000000000000000, 1.000000000000000000 ) ) ;
#8 = EDGE_CURVE ( 'NONE', #196, #119, #100, .T. ) ;
#9 = ORIENTED_EDGE ( 'NONE', *, *, #2, .F. ) ;
#10 = LINE ( 'NONE', #268, #298 ) ;
#11 = DIRECTION ( 'NONE',  ( -0.000000000000000000, -0.000000000000000000, -1.000000000000000000 ) ) ;
#12 = PRODUCT_CONTEXT ( 'NONE', #402, 'mechanical' ) ;
#13 = CARTESIAN_POINT ( 'NONE',  ( -4.008066843507884036E-15, -13.98332953180650051, 0.0009999999999992653654 ) ) ;
#14 = CARTESIAN_POINT ( 'NONE',  ( -41.70000000000000284, -10.98332953180650229, 0.0009999999999992653654 ) ) ;
#15 = DIRECTION ( 'NONE',  ( 1.000000000000000000, 0.000000000000000000, 0.000000000000000000 ) ) ;
#16 = ADVANCED_FACE ( 'NONE', ( #109 ), #73, .F. ) ;
#17 = CARTESIAN_POINT ( 'NONE',  ( 0.000000000000000000, 0.000000000000000000, 0.001000000000000000021 ) ) ;
#18 = ORIENTED_EDGE ( 'NONE', *, *, #149, .T. ) ;
#19 = VECTOR ( 'NONE', #42, 1000.000000000000000 ) ;
#20 = VERTEX_POINT ( 'NONE', #140 ) ;
#21 = CARTESIAN_POINT ( 'NONE',  ( -4.008066843507884036E-15, -13.98332953180650051, 0.0009999999999992653654 ) ) ;
#22 = EDGE_CURVE ( 'NONE', #119, #383, #359, .T. ) ;
#23 = EDGE_LOOP ( 'NONE', ( #68, #130 ) ) ;
#24 = LINE ( 'NONE', #316, #101 ) ;
#25 = AXIS2_PLACEMENT_3D ( 'NONE', #76, #361, #335 ) ;
#26 = DIRECTION ( 'NONE',  ( 1.000000000000000000, -2.866317949806681821E-16, 0.000000000000000000 ) ) ;
#27 = EDGE_CURVE ( 'NONE', #20, #246, #35, .T. ) ;
#28 = PLANE ( 'NONE',  #388 ) ;
#29 = EDGE_LOOP ( 'NONE', ( #53, #125 ) ) ;
#30 = VECTOR ( 'NONE', #267, 1000.000000000000000 ) ;
#31 = PLANE ( 'NONE',  #390 ) ;
#32 = EDGE_CURVE ( 'NONE', #338, #311, #148, .T. ) ;
#33 = FACE_OUTER_BOUND ( 'NONE', #211, .T. ) ;
#34 = EDGE_LOOP ( 'NONE', ( #18, #183, #366, #173 ) ) ;
#35 = LINE ( 'NONE', #239, #225 ) ;
#36 = CARTESIAN_POINT ( 'NONE',  ( 0.000000000000000000, 31.41667046819349807, 0.0009999999999992653654 ) ) ;
#37 = FACE_OUTER_BOUND ( 'NONE', #104, .T. ) ;
#38 = ORIENTED_EDGE ( 'NONE', *, *, #222, .T. ) ;
#39 = FACE_BOUND ( 'NONE', #213, .T. ) ;
#40 = DIRECTION ( 'NONE',  ( -0.000000000000000000, -0.000000000000000000, -1.000000000000000000 ) ) ;
#41 = DIRECTION ( 'NONE',  ( -0.000000000000000000, -0.000000000000000000, -1.000000000000000000 ) ) ;
#42 = DIRECTION ( 'NONE',  ( -1.636531581110195656E-16, -1.000000000000000000, 0.000000000000000000 ) ) ;
#43 = CARTESIAN_POINT ( 'NONE',  ( -41.70000000000000284, -10.98332953180650229, -10.00000000000000000 ) ) ;
#44 = DIRECTION ( 'NONE',  ( -1.000000000000000000, 0.000000000000000000, 0.000000000000000000 ) ) ;
#45 = AXIS2_PLACEMENT_3D ( 'NONE', #341, #96, #322 ) ;
#46 = DIRECTION ( 'NONE',  ( -0.000000000000000000, -0.000000000000000000, -1.000000000000000000 ) ) ;
#47 = EDGE_CURVE ( 'NONE', #246, #299, #260, .T. ) ;
#48 = ORIENTED_EDGE ( 'NONE', *, *, #347, .F. ) ;
#49 = EDGE_LOOP ( 'NONE', ( #82, #160, #320, #380 ) ) ;
#50 = CYLINDRICAL_SURFACE ( 'NONE', #271, 58.50000000000000000 ) ;
#51 = CARTESIAN_POINT ( 'NONE',  ( 0.000000000000000000, 0.000000000000000000, -10.00000000000000000 ) ) ;
#52 = VECTOR ( 'NONE', #44, 1000.000000000000000 ) ;
#53 = ORIENTED_EDGE ( 'NONE', *, *, #90, .T. ) ;
#54 = DIRECTION ( 'NONE',  ( -0.000000000000000000, -0.000000000000000000, -1.000000000000000000 ) ) ;
#55 = LINE ( 'NONE', #57, #278 ) ;
#56 = EDGE_CURVE ( 'NONE', #338, #127, #178, .T. ) ;
#57 = CARTESIAN_POINT ( 'NONE',  ( -58.50000000000000000, 0.000000000000000000, 0.001000000000000000021 ) ) ;
#58 = ORIENTED_EDGE ( 'NONE', *, *, #323, .T. ) ;
#59 = VECTOR ( 'NONE', #231, 1000.000000000000000 ) ;
#60 = FACE_OUTER_BOUND ( 'NONE', #49, .T. ) ;
#61 = ORIENTED_EDGE ( 'NONE', *, *, #318, .F. ) ;
#62 = CARTESIAN_POINT ( 'NONE',  ( 43.54012854693675649, 34.41667046819349451, -10.00000000000000000 ) ) ;
#63 = EDGE_CURVE ( 'NONE', #301, #264, #115, .T. ) ;
#64 = AXIS2_PLACEMENT_3D ( 'NONE', #332, #303, #112 ) ;
#65 = CARTESIAN_POINT ( 'NONE',  ( 0.000000000000000000, 0.000000000000000000, -10.00000000000000000 ) ) ;
#66 = UNCERTAINTY_MEASURE_WITH_UNIT (LENGTH_MEASURE( 1.000000000000000082E-05 ), #232, 'distance_accuracy_value', 'NONE');
#67 = EDGE_CURVE ( 'NONE', #4, #127, #331, .T. ) ;
#68 = ORIENTED_EDGE ( 'NONE', *, *, #347, .T. ) ;
#69 = DIRECTION ( 'NONE',  ( 1.000000000000000000, -2.866317949806681821E-16, 0.000000000000000000 ) ) ;
#70 = CARTESIAN_POINT ( 'NONE',  ( 41.70000000000000995, 31.41667046819349807, -10.00000000000000000 ) ) ;
#71 = ORIENTED_EDGE ( 'NONE', *, *, #250, .T. ) ;
#72 = VECTOR ( 'NONE', #69, 1000.000000000000000 ) ;
#73 = PLANE ( 'NONE',  #25 ) ;
#74 = DIRECTION ( 'NONE',  ( -1.000000000000000000, 0.000000000000000000, -0.000000000000000000 ) ) ;
#75 =( NAMED_UNIT ( * ) PLANE_ANGLE_UNIT ( ) SI_UNIT ( $, .RADIAN. ) );
#76 = CARTESIAN_POINT ( 'NONE',  ( 0.000000000000000000, 34.41667046819349451, 0.0009999999999992653654 ) ) ;
#77 = CARTESIAN_POINT ( 'NONE',  ( -41.70000000000000284, 6.824336693229515863E-15, -10.00000000000000000 ) ) ;
#78 = EDGE_CURVE ( 'NONE', #301, #195, #10, .T. ) ;
#79 = DIRECTION ( 'NONE',  ( -1.000000000000000000, 0.000000000000000000, 0.000000000000000000 ) ) ;
#80 = CARTESIAN_POINT ( 'NONE',  ( -41.69999999999999574, 31.41667046819349807, 0.0009999999999992653654 ) ) ;
#81 = VECTOR ( 'NONE', #308, 1000.000000000000000 ) ;
#82 = ORIENTED_EDGE ( 'NONE', *, *, #250, .F. ) ;
#83 = ORIENTED_EDGE ( 'NONE', *, *, #163, .F. ) ;
#84 = EDGE_CURVE ( 'NONE', #120, #349, #355, .T. ) ;
#85 =( LENGTH_UNIT ( ) NAMED_UNIT ( * ) SI_UNIT ( .MILLI., .METRE. ) );
#86 = EDGE_LOOP ( 'NONE', ( #134, #83, #95, #6 ) ) ;
#87 = CARTESIAN_POINT ( 'NONE',  ( 41.70000000000000284, -6.824336693229515863E-15, 0.0009999999999992653654 ) ) ;
#88 = VECTOR ( 'NONE', #367, 1000.000000000000000 ) ;
#89 = PLANE ( 'NONE',  #228 ) ;
#90 = EDGE_CURVE ( 'NONE', #264, #301, #378, .T. ) ;
#91 = DIRECTION ( 'NONE',  ( -0.000000000000000000, -0.000000000000000000, -1.000000000000000000 ) ) ;
#92 = ORIENTED_EDGE ( 'NONE', *, *, #56, .F. ) ;
#93 = CIRCLE ( 'NONE', #328, 58.50000000000000000 ) ;
#94 = LINE ( 'NONE', #165, #253 ) ;
#95 = ORIENTED_EDGE ( 'NONE', *, *, #201, .T. ) ;
#96 = DIRECTION ( 'NONE',  ( 0.000000000000000000, -1.000000000000000000, 0.000000000000000000 ) ) ;
#97 = ADVANCED_FACE ( 'NONE', ( #146 ), #274, .F. ) ;
#98 = MANIFOLD_SOLID_BREP ( 'Schnitt-Linear austragen4', #405 ) ;
#99 = DIRECTION ( 'NONE',  ( -0.000000000000000000, -0.000000000000000000, -1.000000000000000000 ) ) ;
#100 = LINE ( 'NONE', #375, #238 ) ;
#101 = VECTOR ( 'NONE', #123, 1000.000000000000000 ) ;
#102 = ORIENTED_EDGE ( 'NONE', *, *, #56, .T. ) ;
#103 = FACE_OUTER_BOUND ( 'NONE', #337, .T. ) ;
#104 = EDGE_LOOP ( 'NONE', ( #277, #229, #136, #106 ) ) ;
#105 = CARTESIAN_POINT ( 'NONE',  ( 43.54012854693675649, 34.41667046819349451, 0.0009999999999992653654 ) ) ;
#106 = ORIENTED_EDGE ( 'NONE', *, *, #27, .T. ) ;
#107 = SURFACE_STYLE_FILL_AREA ( #385 ) ;
#108 = AXIS2_PLACEMENT_3D ( 'NONE', #389, #315, #121 ) ;
#109 = FACE_OUTER_BOUND ( 'NONE', #288, .T. ) ;
#110 = LINE ( 'NONE', #300, #346 ) ;
#111 = ADVANCED_FACE ( 'NONE', ( #360, #39, #262, #304 ), #142, .T. ) ;
#112 = DIRECTION ( 'NONE',  ( -1.000000000000000000, 0.000000000000000000, 0.000000000000000000 ) ) ;
#113 = SURFACE_STYLE_USAGE ( .BOTH. , #240 ) ;
#114 = CARTESIAN_POINT ( 'NONE',  ( -58.50000000000000000, 0.000000000000000000, -10.00000000000000000 ) ) ;
#115 = LINE ( 'NONE', #13, #72 ) ;
#116 = DIRECTION ( 'NONE',  ( -0.000000000000000000, -0.000000000000000000, -1.000000000000000000 ) ) ;
#117 = ORIENTED_EDGE ( 'NONE', *, *, #201, .F. ) ;
#118 =( GEOMETRIC_REPRESENTATION_CONTEXT ( 3 ) GLOBAL_UNCERTAINTY_ASSIGNED_CONTEXT ( ( #210 ) ) GLOBAL_UNIT_ASSIGNED_CONTEXT ( ( #85, #243, #280 ) ) REPRESENTATION_CONTEXT ( 'NONE', 'WORKASPACE' ) );
#119 = VERTEX_POINT ( 'NONE', #203 ) ;
#120 = VERTEX_POINT ( 'NONE', #269 ) ;
#121 = DIRECTION ( 'NONE',  ( -1.000000000000000000, 0.000000000000000000, 0.000000000000000000 ) ) ;
#122 = ORIENTED_EDGE ( 'NONE', *, *, #312, .T. ) ;
#123 = DIRECTION ( 'NONE',  ( -0.000000000000000000, -0.000000000000000000, -1.000000000000000000 ) ) ;
#124 = VECTOR ( 'NONE', #237, 1000.000000000000000 ) ;
#125 = ORIENTED_EDGE ( 'NONE', *, *, #63, .T. ) ;
#126 = DIRECTION ( 'NONE',  ( -1.000000000000000000, 0.000000000000000000, 0.000000000000000000 ) ) ;
#127 = VERTEX_POINT ( 'NONE', #174 ) ;
#128 = LINE ( 'NONE', #285, #344 ) ;
#129 = ORIENTED_EDGE ( 'NONE', *, *, #186, .T. ) ;
#130 = ORIENTED_EDGE ( 'NONE', *, *, #273, .T. ) ;
#131 = VECTOR ( 'NONE', #91, 1000.000000000000000 ) ;
#132 = LINE ( 'NONE', #161, #131 ) ;
#133 = ORIENTED_EDGE ( 'NONE', *, *, #386, .F. ) ;
#134 = ORIENTED_EDGE ( 'NONE', *, *, #149, .F. ) ;
#135 = COLOUR_RGB ( '',0.7921568627450980005, 0.8196078431372548767, 0.9333333333333333481 ) ;
#136 = ORIENTED_EDGE ( 'NONE', *, *, #273, .F. ) ;
#137 = LINE ( 'NONE', #87, #19 ) ;
#138 = DIRECTION ( 'NONE',  ( 0.000000000000000000, 0.000000000000000000, 1.000000000000000000 ) ) ;
#139 = VERTEX_POINT ( 'NONE', #144 ) ;
#140 = CARTESIAN_POINT ( 'NONE',  ( -43.54012854693675649, 34.41667046819349451, 0.0009999999999992653654 ) ) ;
#141 = EDGE_LOOP ( 'NONE', ( #170, #71, #339, #61 ) ) ;
#142 = PLANE ( 'NONE',  #399 ) ;
#143 = CARTESIAN_POINT ( 'NONE',  ( 0.000000000000000000, 34.41667046819349451, 0.0009999999999992653654 ) ) ;
#144 = CARTESIAN_POINT ( 'NONE',  ( 58.50000000000000000, 7.164183775012017211E-15, 0.001000000000000000021 ) ) ;
#145 = PRODUCT_DEFINITION_CONTEXT ( 'detailed design', #214, 'design' ) ;
#146 = FACE_OUTER_BOUND ( 'NONE', #352, .T. ) ;
#147 = APPLICATION_PROTOCOL_DEFINITION ( 'draft international standard', 'automotive_design', 1998, #402 ) ;
#148 = LINE ( 'NONE', #80, #286 ) ;
#149 = EDGE_CURVE ( 'NONE', #196, #311, #236, .T. ) ;
#150 = CARTESIAN_POINT ( 'NONE',  ( 0.000000000000000000, -10.98332953180650229, 0.0009999999999992653654 ) ) ;
#151 = ORIENTED_EDGE ( 'NONE', *, *, #47, .F. ) ;
#152 = VECTOR ( 'NONE', #205, 1000.000000000000000 ) ;
#153 = VERTEX_POINT ( 'NONE', #176 ) ;
#154 = CARTESIAN_POINT ( 'NONE',  ( 0.000000000000000000, 34.41667046819349451, -10.00000000000000000 ) ) ;
#155 = ORIENTED_EDGE ( 'NONE', *, *, #244, .T. ) ;
#156 = DIRECTION ( 'NONE',  ( 1.636531581110195656E-16, 1.000000000000000000, 0.000000000000000000 ) ) ;
#157 = EDGE_CURVE ( 'NONE', #189, #195, #373, .T. ) ;
#158 = DIRECTION ( 'NONE',  ( 0.000000000000000000, 0.000000000000000000, -1.000000000000000000 ) ) ;
#159 = AXIS2_PLACEMENT_3D ( 'NONE', #354, #7, #188 ) ;
#160 = ORIENTED_EDGE ( 'NONE', *, *, #222, .F. ) ;
#161 = CARTESIAN_POINT ( 'NONE',  ( 41.70000000000000284, -10.98332953180650229, 0.0009999999999992653654 ) ) ;
#162 = CARTESIAN_POINT ( 'NONE',  ( 41.70000000000000284, -6.824336693229515863E-15, 0.0009999999999992653654 ) ) ;
#163 = EDGE_CURVE ( 'NONE', #249, #196, #110, .T. ) ;
#164 = ORIENTED_EDGE ( 'NONE', *, *, #157, .T. ) ;
#165 = CARTESIAN_POINT ( 'NONE',  ( 53.70955683307121831, -13.98332953180651650, 0.0009999999999992653654 ) ) ;
#166 = PRODUCT_DEFINITION_FORMATION_WITH_SPECIFIED_SOURCE ( 'ANY', '', #199, .NOT_KNOWN. ) ;
#167 = ADVANCED_FACE ( 'NONE', ( #33 ), #357, .F. ) ;
#168 = CARTESIAN_POINT ( 'NONE',  ( 53.70955683307121831, -13.98332953180651650, -10.00000000000000000 ) ) ;
#169 = CIRCLE ( 'NONE', #394, 55.49999999999999289 ) ;
#170 = ORIENTED_EDGE ( 'NONE', *, *, #379, .F. ) ;
#171 = DIRECTION ( 'NONE',  ( -1.000000000000000000, 0.000000000000000000, 0.000000000000000000 ) ) ;
#172 =( NAMED_UNIT ( * ) SI_UNIT ( $, .STERADIAN. ) SOLID_ANGLE_UNIT ( ) );
#173 = ORIENTED_EDGE ( 'NONE', *, *, #8, .F. ) ;
#174 = CARTESIAN_POINT ( 'NONE',  ( -41.70000000000000284, -10.98332953180650229, 0.0009999999999992653654 ) ) ;
#175 = EDGE_CURVE ( 'NONE', #299, #246, #197, .T. ) ;
#176 = CARTESIAN_POINT ( 'NONE',  ( -58.50000000000000000, 0.000000000000000000, 0.001000000000000000021 ) ) ;
#177 = CIRCLE ( 'NONE', #159, 58.50000000000000000 ) ;
#178 = LINE ( 'NONE', #202, #81 ) ;
#179 = DIRECTION ( 'NONE',  ( 0.000000000000000000, -1.000000000000000000, 0.000000000000000000 ) ) ;
#180 = CARTESIAN_POINT ( 'NONE',  ( 0.000000000000000000, -10.98332953180650229, 0.0009999999999992653654 ) ) ;
#181 = CARTESIAN_POINT ( 'NONE',  ( 0.000000000000000000, 0.000000000000000000, 0.001000000000000000021 ) ) ;
#182 = EDGE_LOOP ( 'NONE', ( #58, #224 ) ) ;
#183 = ORIENTED_EDGE ( 'NONE', *, *, #386, .T. ) ;
#184 = CARTESIAN_POINT ( 'NONE',  ( 0.000000000000000000, 31.41667046819349807, -10.00000000000000000 ) ) ;
#185 = MECHANICAL_DESIGN_GEOMETRIC_PRESENTATION_REPRESENTATION (  '', ( #362 ), #118 ) ;
#186 = EDGE_CURVE ( 'NONE', #249, #4, #137, .T. ) ;
#187 = EDGE_LOOP ( 'NONE', ( #276, #220, #209, #234 ) ) ;
#188 = DIRECTION ( 'NONE',  ( 1.000000000000000000, 0.000000000000000000, 0.000000000000000000 ) ) ;
#189 = VERTEX_POINT ( 'NONE', #168 ) ;
#190 = ORIENTED_EDGE ( 'NONE', *, *, #233, .T. ) ;
#191 = FACE_OUTER_BOUND ( 'NONE', #86, .T. ) ;
#192 = ORIENTED_EDGE ( 'NONE', *, *, #78, .F. ) ;
#193 = AXIS2_PLACEMENT_3D ( 'NONE', #305, #46, #245 ) ;
#194 = EDGE_CURVE ( 'NONE', #257, #299, #381, .T. ) ;
#195 = VERTEX_POINT ( 'NONE', #350 ) ;
#196 = VERTEX_POINT ( 'NONE', #70 ) ;
#197 = LINE ( 'NONE', #154, #88 ) ;
#198 = AXIS2_PLACEMENT_3D ( 'NONE', #204, #207, #302 ) ;
#199 = PRODUCT ( 'akku_halter3', 'akku_halter3', '', ( #12 ) ) ;
#200 = ORIENTED_EDGE ( 'NONE', *, *, #233, .F. ) ;
#201 = EDGE_CURVE ( 'NONE', #249, #338, #327, .T. ) ;
#202 = CARTESIAN_POINT ( 'NONE',  ( -41.70000000000000284, 6.824336693229515863E-15, 0.0009999999999992653654 ) ) ;
#203 = CARTESIAN_POINT ( 'NONE',  ( 41.70000000000000284, -10.98332953180650229, -10.00000000000000000 ) ) ;
#204 = CARTESIAN_POINT ( 'NONE',  ( 0.000000000000000000, 0.000000000000000000, -10.00000000000000000 ) ) ;
#205 = DIRECTION ( 'NONE',  ( -1.000000000000000000, 0.000000000000000000, 0.000000000000000000 ) ) ;
#206 = DIRECTION ( 'NONE',  ( 1.000000000000000000, 0.000000000000000000, 0.000000000000000000 ) ) ;
#207 = DIRECTION ( 'NONE',  ( 0.000000000000000000, 0.000000000000000000, -1.000000000000000000 ) ) ;
#208 = DIRECTION ( 'NONE',  ( 0.000000000000000000, 0.000000000000000000, 1.000000000000000000 ) ) ;
#209 = ORIENTED_EDGE ( 'NONE', *, *, #186, .F. ) ;
#210 = UNCERTAINTY_MEASURE_WITH_UNIT (LENGTH_MEASURE( 1.000000000000000082E-05 ), #85, 'distance_accuracy_value', 'NONE');
#211 = EDGE_LOOP ( 'NONE', ( #190, #248, #317, #294 ) ) ;
#212 = DIRECTION ( 'NONE',  ( -1.000000000000000000, 0.000000000000000000, 0.000000000000000000 ) ) ;
#213 = EDGE_LOOP ( 'NONE', ( #393, #151 ) ) ;
#214 = APPLICATION_CONTEXT ( 'automotive_design' ) ;
#215 = DIRECTION ( 'NONE',  ( 0.000000000000000000, 0.000000000000000000, -1.000000000000000000 ) ) ;
#216 = AXIS2_PLACEMENT_3D ( 'NONE', #258, #376, #126 ) ;
#217 = VECTOR ( 'NONE', #384, 1000.000000000000000 ) ;
#218 = PRODUCT_RELATED_PRODUCT_CATEGORY ( 'part', '', ( #199 ) ) ;
#219 = CARTESIAN_POINT ( 'NONE',  ( -41.70000000000000284, 6.824336693229515863E-15, 0.0009999999999992653654 ) ) ;
#220 = ORIENTED_EDGE ( 'NONE', *, *, #244, .F. ) ;
#221 = FACE_OUTER_BOUND ( 'NONE', #187, .T. ) ;
#222 = EDGE_CURVE ( 'NONE', #153, #139, #177, .T. ) ;
#223 = CARTESIAN_POINT ( 'NONE',  ( 41.70000000000000995, 31.41667046819349807, 0.001000000000000000021 ) ) ;
#224 = ORIENTED_EDGE ( 'NONE', *, *, #84, .T. ) ;
#225 = VECTOR ( 'NONE', #40, 1000.000000000000000 ) ;
#226 = CARTESIAN_POINT ( 'NONE',  ( 43.54012854693675649, 34.41667046819349451, 0.001000000000000000021 ) ) ;
#227 = ADVANCED_FACE ( 'NONE', ( #221 ), #89, .F. ) ;
#228 = AXIS2_PLACEMENT_3D ( 'NONE', #162, #371, #289 ) ;
#229 = ORIENTED_EDGE ( 'NONE', *, *, #194, .F. ) ;
#230 = DIRECTION ( 'NONE',  ( -1.000000000000000000, 0.000000000000000000, 0.000000000000000000 ) ) ;
#231 = DIRECTION ( 'NONE',  ( -0.000000000000000000, -0.000000000000000000, -1.000000000000000000 ) ) ;
#232 =( LENGTH_UNIT ( ) NAMED_UNIT ( * ) SI_UNIT ( .MILLI., .METRE. ) );
#233 = EDGE_CURVE ( 'NONE', #195, #189, #128, .T. ) ;
#234 = ORIENTED_EDGE ( 'NONE', *, *, #163, .T. ) ;
#235 = CARTESIAN_POINT ( 'NONE',  ( 0.000000000000000000, -10.98332953180650229, -10.00000000000000000 ) ) ;
#236 = LINE ( 'NONE', #184, #152 ) ;
#237 = DIRECTION ( 'NONE',  ( -1.636531581110195656E-16, -1.000000000000000000, 0.000000000000000000 ) ) ;
#238 = VECTOR ( 'NONE', #391, 1000.000000000000000 ) ;
#239 = CARTESIAN_POINT ( 'NONE',  ( -43.54012854693675649, 34.41667046819349451, 0.0009999999999992653654 ) ) ;
#240 = SURFACE_SIDE_STYLE ('',( #107 ) ) ;
#241 = APPLICATION_PROTOCOL_DEFINITION ( 'draft international standard', 'automotive_design', 1998, #214 ) ;
#242 = CARTESIAN_POINT ( 'NONE',  ( 0.000000000000000000, 0.000000000000000000, 0.0009999999999992653654 ) ) ;
#243 =( NAMED_UNIT ( * ) PLANE_ANGLE_UNIT ( ) SI_UNIT ( $, .RADIAN. ) );
#244 = EDGE_CURVE ( 'NONE', #4, #119, #132, .T. ) ;
#245 = DIRECTION ( 'NONE',  ( -1.000000000000000000, 0.000000000000000000, 0.000000000000000000 ) ) ;
#246 = VERTEX_POINT ( 'NONE', #400 ) ;
#247 = AXIS2_PLACEMENT_3D ( 'NONE', #21, #333, #266 ) ;
#248 = ORIENTED_EDGE ( 'NONE', *, *, #312, .F. ) ;
#249 = VERTEX_POINT ( 'NONE', #223 ) ;
#250 = EDGE_CURVE ( 'NONE', #139, #120, #24, .T. ) ;
#251 = DIRECTION ( 'NONE',  ( -0.000000000000000000, -0.000000000000000000, -1.000000000000000000 ) ) ;
#252 = CARTESIAN_POINT ( 'NONE',  ( -53.70955683307121831, -13.98332953180651650, 0.0009999999999992653654 ) ) ;
#253 = VECTOR ( 'NONE', #54, 1000.000000000000000 ) ;
#254 = ORIENTED_EDGE ( 'NONE', *, *, #2, .T. ) ;
#255 = CARTESIAN_POINT ( 'NONE',  ( 53.70955683307121831, -13.98332953180651650, 0.001000000000000000021 ) ) ;
#256 = PRESENTATION_LAYER_ASSIGNMENT (  '', '', ( #362 ) ) ;
#257 = VERTEX_POINT ( 'NONE', #226 ) ;
#258 = CARTESIAN_POINT ( 'NONE',  ( 0.000000000000000000, 0.000000000000000000, 0.001000000000000000021 ) ) ;
#259 = ADVANCED_FACE ( 'NONE', ( #343 ), #28, .T. ) ;
#260 = CIRCLE ( 'NONE', #198, 55.49999999999999289 ) ;
#261 = ORIENTED_EDGE ( 'NONE', *, *, #32, .F. ) ;
#262 = FACE_OUTER_BOUND ( 'NONE', #182, .T. ) ;
#263 = DIRECTION ( 'NONE',  ( 1.000000000000000000, 0.000000000000000000, -0.000000000000000000 ) ) ;
#264 = VERTEX_POINT ( 'NONE', #255 ) ;
#265 = DIRECTION ( 'NONE',  ( -0.000000000000000000, -0.000000000000000000, -1.000000000000000000 ) ) ;
#266 = DIRECTION ( 'NONE',  ( -1.000000000000000000, 2.866317949806681821E-16, 0.000000000000000000 ) ) ;
#267 = DIRECTION ( 'NONE',  ( -1.000000000000000000, 0.000000000000000000, 0.000000000000000000 ) ) ;
#268 = CARTESIAN_POINT ( 'NONE',  ( -53.70955683307121831, -13.98332953180651650, 0.0009999999999992653654 ) ) ;
#269 = CARTESIAN_POINT ( 'NONE',  ( 58.50000000000000000, 7.164183775012017211E-15, -10.00000000000000000 ) ) ;
#270 = FACE_OUTER_BOUND ( 'NONE', #330, .T. ) ;
#271 = AXIS2_PLACEMENT_3D ( 'NONE', #181, #116, #79 ) ;
#272 = CARTESIAN_POINT ( 'NONE',  ( 0.000000000000000000, 0.000000000000000000, 0.000000000000000000 ) ) ;
#273 = EDGE_CURVE ( 'NONE', #20, #257, #169, .T. ) ;
#274 = CYLINDRICAL_SURFACE ( 'NONE', #319, 55.49999999999999289 ) ;
#275 = CYLINDRICAL_SURFACE ( 'NONE', #193, 55.49999999999999289 ) ;
#276 = ORIENTED_EDGE ( 'NONE', *, *, #8, .T. ) ;
#277 = ORIENTED_EDGE ( 'NONE', *, *, #47, .T. ) ;
#278 = VECTOR ( 'NONE', #99, 1000.000000000000000 ) ;
#279 = ORIENTED_EDGE ( 'NONE', *, *, #67, .T. ) ;
#280 =( NAMED_UNIT ( * ) SI_UNIT ( $, .STERADIAN. ) SOLID_ANGLE_UNIT ( ) );
#281 = FACE_OUTER_BOUND ( 'NONE', #141, .T. ) ;
#282 = CARTESIAN_POINT ( 'NONE',  ( 0.000000000000000000, 0.000000000000000000, 0.0009999999999992653654 ) ) ;
#283 = ADVANCED_BREP_SHAPE_REPRESENTATION ( 'akku_halter3', ( #98, #291 ), #374 ) ;
#284 = ORIENTED_EDGE ( 'NONE', *, *, #22, .T. ) ;
#285 = CARTESIAN_POINT ( 'NONE',  ( -4.008066843507884036E-15, -13.98332953180650051, -10.00000000000000000 ) ) ;
#286 = VECTOR ( 'NONE', #265, 1000.000000000000000 ) ;
#287 = EDGE_LOOP ( 'NONE', ( #404, #200 ) ) ;
#288 = EDGE_LOOP ( 'NONE', ( #396, #313, #48, #395 ) ) ;
#289 = DIRECTION ( 'NONE',  ( 1.636531581110195656E-16, 1.000000000000000000, 0.000000000000000000 ) ) ;
#290 = AXIS2_PLACEMENT_3D ( 'NONE', #309, #387, #230 ) ;
#291 = AXIS2_PLACEMENT_3D ( 'NONE', #272, #208, #15 ) ;
#292 = PRODUCT_DEFINITION ( 'UNKNOWN', '', #166, #145 ) ;
#293 = CARTESIAN_POINT ( 'NONE',  ( 0.000000000000000000, 0.000000000000000000, 0.001000000000000000021 ) ) ;
#294 = ORIENTED_EDGE ( 'NONE', *, *, #78, .T. ) ;
#295 = EDGE_LOOP ( 'NONE', ( #279, #92, #117, #129 ) ) ;
#296 = ADVANCED_FACE ( 'NONE', ( #60 ), #372, .T. ) ;
#297 = FILL_AREA_STYLE_COLOUR ( '', #135 ) ;
#298 = VECTOR ( 'NONE', #353, 1000.000000000000000 ) ;
#299 = VERTEX_POINT ( 'NONE', #62 ) ;
#300 = CARTESIAN_POINT ( 'NONE',  ( 41.70000000000000995, 31.41667046819349807, 0.0009999999999992653654 ) ) ;
#301 = VERTEX_POINT ( 'NONE', #252 ) ;
#302 = DIRECTION ( 'NONE',  ( -1.000000000000000000, 0.000000000000000000, 0.000000000000000000 ) ) ;
#303 = DIRECTION ( 'NONE',  ( 0.000000000000000000, 0.000000000000000000, -1.000000000000000000 ) ) ;
#304 = FACE_BOUND ( 'NONE', #34, .T. ) ;
#305 = CARTESIAN_POINT ( 'NONE',  ( 0.000000000000000000, 0.000000000000000000, 0.0009999999999992653654 ) ) ;
#306 = AXIS2_PLACEMENT_3D ( 'NONE', #17, #356, #206 ) ;
#307 = ADVANCED_FACE ( 'NONE', ( #191 ), #342, .T. ) ;
#308 = DIRECTION ( 'NONE',  ( -1.636531581110195656E-16, -1.000000000000000000, 0.000000000000000000 ) ) ;
#309 = CARTESIAN_POINT ( 'NONE',  ( 0.000000000000000000, 0.000000000000000000, -10.00000000000000000 ) ) ;
#310 = DIRECTION ( 'NONE',  ( 0.000000000000000000, -0.000000000000000000, -1.000000000000000000 ) ) ;
#311 = VERTEX_POINT ( 'NONE', #398 ) ;
#312 = EDGE_CURVE ( 'NONE', #264, #189, #94, .T. ) ;
#313 = ORIENTED_EDGE ( 'NONE', *, *, #27, .F. ) ;
#314 = VECTOR ( 'NONE', #41, 1000.000000000000000 ) ;
#315 = DIRECTION ( 'NONE',  ( 0.000000000000000000, 0.000000000000000000, -1.000000000000000000 ) ) ;
#316 = CARTESIAN_POINT ( 'NONE',  ( 58.50000000000000000, 7.164183775012017211E-15, 0.001000000000000000021 ) ) ;
#317 = ORIENTED_EDGE ( 'NONE', *, *, #63, .F. ) ;
#318 = EDGE_CURVE ( 'NONE', #153, #349, #55, .T. ) ;
#319 = AXIS2_PLACEMENT_3D ( 'NONE', #242, #11, #212 ) ;
#320 = ORIENTED_EDGE ( 'NONE', *, *, #318, .T. ) ;
#321 = DIRECTION ( 'NONE',  ( -1.000000000000000000, 0.000000000000000000, 0.000000000000000000 ) ) ;
#322 = DIRECTION ( 'NONE',  ( 0.000000000000000000, -0.000000000000000000, -1.000000000000000000 ) ) ;
#323 = EDGE_CURVE ( 'NONE', #349, #120, #93, .T. ) ;
#324 = AXIS2_PLACEMENT_3D ( 'NONE', #150, #179, #310 ) ;
#325 = DIRECTION ( 'NONE',  ( 0.000000000000000000, 0.000000000000000000, -1.000000000000000000 ) ) ;
#326 = ORIENTED_EDGE ( 'NONE', *, *, #90, .F. ) ;
#327 = LINE ( 'NONE', #36, #340 ) ;
#328 = AXIS2_PLACEMENT_3D ( 'NONE', #65, #325, #351 ) ;
#329 = LINE ( 'NONE', #143, #30 ) ;
#330 = EDGE_LOOP ( 'NONE', ( #284, #9, #364, #155 ) ) ;
#331 = LINE ( 'NONE', #180, #217 ) ;
#332 = CARTESIAN_POINT ( 'NONE',  ( 0.000000000000000000, 0.000000000000000000, 0.0009999999999992653654 ) ) ;
#333 = DIRECTION ( 'NONE',  ( 2.866317949806681821E-16, 1.000000000000000000, -0.000000000000000000 ) ) ;
#334 = ADVANCED_FACE ( 'NONE', ( #382, #3, #103, #5 ), #31, .T. ) ;
#335 = DIRECTION ( 'NONE',  ( 0.000000000000000000, -0.000000000000000000, -1.000000000000000000 ) ) ;
#336 = PLANE ( 'NONE',  #324 ) ;
#337 = EDGE_LOOP ( 'NONE', ( #38, #401 ) ) ;
#338 = VERTEX_POINT ( 'NONE', #1 ) ;
#339 = ORIENTED_EDGE ( 'NONE', *, *, #323, .F. ) ;
#340 = VECTOR ( 'NONE', #171, 1000.000000000000000 ) ;
#341 = CARTESIAN_POINT ( 'NONE',  ( 0.000000000000000000, 31.41667046819349807, 0.0009999999999992653654 ) ) ;
#342 = PLANE ( 'NONE',  #45 ) ;
#343 = FACE_OUTER_BOUND ( 'NONE', #365, .T. ) ;
#344 = VECTOR ( 'NONE', #26, 1000.000000000000000 ) ;
#345 = ADVANCED_FACE ( 'NONE', ( #281 ), #50, .T. ) ;
#346 = VECTOR ( 'NONE', #251, 1000.000000000000000 ) ;
#347 = EDGE_CURVE ( 'NONE', #257, #20, #329, .T. ) ;
#348 = PRODUCT_DEFINITION_SHAPE ( 'NONE', 'NONE',  #292 ) ;
#349 = VERTEX_POINT ( 'NONE', #114 ) ;
#350 = CARTESIAN_POINT ( 'NONE',  ( -53.70955683307121831, -13.98332953180648452, -10.00000000000000000 ) ) ;
#351 = DIRECTION ( 'NONE',  ( -1.000000000000000000, 0.000000000000000000, 0.000000000000000000 ) ) ;
#352 = EDGE_LOOP ( 'NONE', ( #164, #192, #326, #122 ) ) ;
#353 = DIRECTION ( 'NONE',  ( -0.000000000000000000, -0.000000000000000000, -1.000000000000000000 ) ) ;
#354 = CARTESIAN_POINT ( 'NONE',  ( 0.000000000000000000, 0.000000000000000000, 0.001000000000000000021 ) ) ;
#355 = CIRCLE ( 'NONE', #290, 58.50000000000000000 ) ;
#356 = DIRECTION ( 'NONE',  ( 0.000000000000000000, 0.000000000000000000, 1.000000000000000000 ) ) ;
#357 = PLANE ( 'NONE',  #247 ) ;
#358 = LINE ( 'NONE', #77, #124 ) ;
#359 = LINE ( 'NONE', #235, #52 ) ;
#360 = FACE_BOUND ( 'NONE', #287, .T. ) ;
#361 = DIRECTION ( 'NONE',  ( 0.000000000000000000, -1.000000000000000000, 0.000000000000000000 ) ) ;
#362 = STYLED_ITEM ( 'NONE', ( #397 ), #98 ) ;
#363 = ADVANCED_FACE ( 'NONE', ( #270 ), #336, .F. ) ;
#364 = ORIENTED_EDGE ( 'NONE', *, *, #67, .F. ) ;
#365 = EDGE_LOOP ( 'NONE', ( #133, #261, #102, #254 ) ) ;
#366 = ORIENTED_EDGE ( 'NONE', *, *, #22, .F. ) ;
#367 = DIRECTION ( 'NONE',  ( -1.000000000000000000, 0.000000000000000000, 0.000000000000000000 ) ) ;
#368 = CIRCLE ( 'NONE', #306, 58.50000000000000000 ) ;
#369 = CARTESIAN_POINT ( 'NONE',  ( 41.70000000000000284, -10.98332953180650229, 0.0009999999999992653654 ) ) ;
#370 = ADVANCED_FACE ( 'NONE', ( #37 ), #275, .F. ) ;
#371 = DIRECTION ( 'NONE',  ( 1.000000000000000000, -1.636531581110195656E-16, 0.000000000000000000 ) ) ;
#372 = CYLINDRICAL_SURFACE ( 'NONE', #216, 58.50000000000000000 ) ;
#373 = CIRCLE ( 'NONE', #108, 55.49999999999999289 ) ;
#374 =( GEOMETRIC_REPRESENTATION_CONTEXT ( 3 ) GLOBAL_UNCERTAINTY_ASSIGNED_CONTEXT ( ( #66 ) ) GLOBAL_UNIT_ASSIGNED_CONTEXT ( ( #232, #75, #172 ) ) REPRESENTATION_CONTEXT ( 'NONE', 'WORKASPACE' ) );
#375 = CARTESIAN_POINT ( 'NONE',  ( 41.70000000000000284, -6.824336693229515863E-15, -10.00000000000000000 ) ) ;
#376 = DIRECTION ( 'NONE',  ( -0.000000000000000000, -0.000000000000000000, -1.000000000000000000 ) ) ;
#377 = LINE ( 'NONE', #14, #314 ) ;
#378 = CIRCLE ( 'NONE', #64, 55.49999999999999289 ) ;
#379 = EDGE_CURVE ( 'NONE', #139, #153, #368, .T. ) ;
#380 = ORIENTED_EDGE ( 'NONE', *, *, #84, .F. ) ;
#381 = LINE ( 'NONE', #105, #59 ) ;
#382 = FACE_BOUND ( 'NONE', #29, .T. ) ;
#383 = VERTEX_POINT ( 'NONE', #43 ) ;
#384 = DIRECTION ( 'NONE',  ( -1.000000000000000000, 0.000000000000000000, 0.000000000000000000 ) ) ;
#385 = FILL_AREA_STYLE ('',( #297 ) ) ;
#386 = EDGE_CURVE ( 'NONE', #311, #383, #358, .T. ) ;
#387 = DIRECTION ( 'NONE',  ( 0.000000000000000000, 0.000000000000000000, -1.000000000000000000 ) ) ;
#388 = AXIS2_PLACEMENT_3D ( 'NONE', #219, #403, #156 ) ;
#389 = CARTESIAN_POINT ( 'NONE',  ( 0.000000000000000000, 0.000000000000000000, -10.00000000000000000 ) ) ;
#390 = AXIS2_PLACEMENT_3D ( 'NONE', #293, #138, #263 ) ;
#391 = DIRECTION ( 'NONE',  ( -1.636531581110195656E-16, -1.000000000000000000, 0.000000000000000000 ) ) ;
#392 = SHAPE_DEFINITION_REPRESENTATION ( #348, #283 ) ;
#393 = ORIENTED_EDGE ( 'NONE', *, *, #175, .F. ) ;
#394 = AXIS2_PLACEMENT_3D ( 'NONE', #282, #158, #321 ) ;
#395 = ORIENTED_EDGE ( 'NONE', *, *, #194, .T. ) ;
#396 = ORIENTED_EDGE ( 'NONE', *, *, #175, .T. ) ;
#397 = PRESENTATION_STYLE_ASSIGNMENT (( #113 ) ) ;
#398 = CARTESIAN_POINT ( 'NONE',  ( -41.69999999999999574, 31.41667046819349807, -10.00000000000000000 ) ) ;
#399 = AXIS2_PLACEMENT_3D ( 'NONE', #51, #215, #74 ) ;
#400 = CARTESIAN_POINT ( 'NONE',  ( -43.54012854693675649, 34.41667046819349451, -10.00000000000000000 ) ) ;
#401 = ORIENTED_EDGE ( 'NONE', *, *, #379, .T. ) ;
#402 = APPLICATION_CONTEXT ( 'automotive_design' ) ;
#403 = DIRECTION ( 'NONE',  ( 1.000000000000000000, -1.636531581110195656E-16, 0.000000000000000000 ) ) ;
#404 = ORIENTED_EDGE ( 'NONE', *, *, #157, .F. ) ;
#405 = CLOSED_SHELL ( 'NONE', ( #345, #334, #111, #296, #259, #363, #227, #307, #16, #370, #97, #167 ) ) ;
ENDSEC;
END-ISO-10303-21;
